<svg width="16" height="16" viewBox="0 0 16 16" fill="none" xmlns="http://www.w3.org/2000/svg">
<g clip-path="url(#clip0_78_342)">
<path d="M9.33317 1.33325H3.99984C3.64622 1.33325 3.30708 1.47373 3.05703 1.72378C2.80698 1.97382 2.6665 2.31296 2.6665 2.66659V13.3333C2.6665 13.6869 2.80698 14.026 3.05703 14.2761C3.30708 14.5261 3.64622 14.6666 3.99984 14.6666H11.9998C12.3535 14.6666 12.6926 14.5261 12.9426 14.2761C13.1927 14.026 13.3332 13.6869 13.3332 13.3333V5.33325M9.33317 1.33325L13.3332 5.33325M9.33317 1.33325L9.33317 5.33325H13.3332M10.6665 8.66658H5.33317M10.6665 11.3333H5.33317M6.6665 5.99992H5.33317" stroke="#1E1E1E" stroke-width="1.6" stroke-linecap="round" stroke-linejoin="round"/>
</g>
<defs>
<clipPath id="clip0_78_342">
<rect width="16" height="16" fill="white"/>
</clipPath>
</defs>
</svg>
