<svg width="48" height="48" viewBox="0 0 48 48" fill="none" xmlns="http://www.w3.org/2000/svg">
<path d="M32.4713 10.3724L27.9232 13.3333C27.7511 12.2527 27.3973 11.2093 26.8756 10.2636L24 5.05615L21.1245 10.2636C20.6027 11.2079 20.249 12.2513 20.0769 13.3333L15.5288 10.3724V16.33C15.5288 17.0155 15.6348 17.6845 15.8344 18.3191L15.5288 18.1209V24.0786C15.5288 24.7641 15.6348 25.4331 15.8344 26.0677L15.5288 25.8695V31.8271C15.5288 34.0681 16.6507 36.1371 18.5283 37.3594L23.2498 40.4333V47.1783H24.7503V40.4333L29.4718 37.3594C31.3508 36.1371 32.4713 34.0681 32.4713 31.8271V25.8695L32.1657 26.0677C32.3653 25.4331 32.4713 24.7641 32.4713 24.0786V18.1209L32.1657 18.3191C32.3653 17.6845 32.4713 17.0155 32.4713 16.33V10.3724ZM24.7503 23.1453V19.9531C24.7503 18.2214 25.6175 16.6232 27.0684 15.6775L30.9722 13.1364V16.3286C30.9722 18.0603 30.105 19.6585 28.6541 20.6042L24.7503 23.1453ZM22.4363 10.989L23.9987 8.15888L25.561 10.989C26.1075 11.9774 26.4338 13.0965 26.5177 14.2459L26.2479 14.4208C25.2788 15.0512 24.5135 15.9074 23.9973 16.8958C23.4811 15.9074 22.7157 15.0512 21.7466 14.4208L21.4768 14.2459C21.5608 13.0952 21.8871 11.9774 22.4335 10.989H22.4363ZM17.0279 13.1378L20.9317 15.6789C22.384 16.6232 23.2498 18.2214 23.2498 19.9545V23.1467L19.346 20.6056C17.8937 19.6613 17.0279 18.0631 17.0279 16.33V13.1378ZM17.0279 24.0786V20.8864L20.9317 23.4275C22.384 24.3718 23.2498 25.9699 23.2498 27.703V30.8952L21.7508 29.9192C21.7508 29.9192 21.7508 29.9192 21.7494 29.9192L19.346 28.3541C17.8951 27.4098 17.0279 25.8116 17.0279 24.08V24.0786ZM17.0279 31.8271V28.6349L18.5269 29.6109L20.9317 31.176C22.3826 32.1203 23.2485 33.7185 23.2485 35.4502V38.6424L19.3446 36.1013C17.8923 35.157 17.0265 33.5588 17.0265 31.8258L17.0279 31.8271ZM30.9722 31.8271C30.9722 33.5588 30.105 35.157 28.6541 36.1027L24.7503 38.6438V35.4516C24.7503 33.7199 25.6161 32.1217 27.067 31.1774L29.4718 29.6123L30.9722 28.6363V31.8285V31.8271ZM26.2507 29.9179L24.7503 30.8938V27.7016C24.7503 25.9699 25.6175 24.3718 27.0684 23.4261L30.9722 20.885V24.0772C30.9722 25.8089 30.105 27.4071 28.6541 28.3527L27.2129 29.2902L26.2493 29.9165L26.2507 29.9179Z" fill="black"/>
<path d="M33.3716 15.6885L41.2895 7.77201L40.2281 6.71069L33.3716 13.5672V15.6885Z" fill="black"/>
<path d="M14.6421 32.2964L6.71045 40.228L7.77176 41.2893L14.9752 34.0859C14.7949 33.5119 14.6806 32.9117 14.6435 32.2964H14.6421Z" fill="black"/>
<path d="M24 48C10.7659 48 0 37.2341 0 24C0 10.7659 10.7659 0 24 0C37.2341 0 48 10.7659 48 24C48 37.2341 37.2341 48 24 48ZM24 1.50043C11.5932 1.50043 1.50043 11.5932 1.50043 24C1.50043 36.4068 11.5932 46.4996 24 46.4996C36.4068 46.4996 46.4996 36.4068 46.4996 24C46.4996 11.5932 36.4068 1.50043 24 1.50043Z" fill="black"/>
</svg>
