<svg width="15" height="15" viewBox="0 0 15 15" fill="none" xmlns="http://www.w3.org/2000/svg">
<path d="M6.09551 8.08909C6.38181 8.47184 6.74708 8.78854 7.16654 9.01771C7.58601 9.24689 8.04985 9.38317 8.52661 9.41731C9.00337 9.45146 9.4819 9.38267 9.92974 9.21561C10.3776 9.04855 10.7843 8.78713 11.1222 8.44909L13.1222 6.44909C13.7294 5.82041 14.0654 4.97841 14.0578 4.10442C14.0502 3.23043 13.6996 2.39439 13.0816 1.77636C12.4635 1.15833 11.6275 0.80777 10.7535 0.800175C9.87952 0.79258 9.03752 1.12856 8.40884 1.73575L7.26218 2.87575M8.76218 6.75575C8.47588 6.373 8.11061 6.0563 7.69114 5.82713C7.27168 5.59796 6.80784 5.46168 6.33108 5.42753C5.85431 5.39339 5.37579 5.46218 4.92795 5.62923C4.48011 5.79629 4.07343 6.05771 3.73551 6.39575L1.73551 8.39575C1.12832 9.02443 0.792336 9.86644 0.799931 10.7404C0.807525 11.6144 1.15809 12.4505 1.77612 13.0685C2.39414 13.6865 3.23018 14.0371 4.10417 14.0447C4.97816 14.0523 5.82017 13.7163 6.44884 13.1091L7.58884 11.9691" stroke="#1E1E1E" stroke-width="1.6" stroke-linecap="round" stroke-linejoin="round"/>
</svg>
