<svg width="48" height="48" viewBox="0 0 48 48" fill="none" xmlns="http://www.w3.org/2000/svg">
<g clip-path="url(#clip0_78_319)">
<path d="M12.4534 34.4851L6.71045 40.228L7.77176 41.288L13.0508 36.0089C12.8195 35.5175 12.6186 35.0096 12.4534 34.4851Z" fill="black"/>
<path d="M23.9999 42.0712C17.8261 42.0712 12.8018 37.0482 12.8018 30.8731C12.8018 21.4176 22.9538 6.86206 23.386 6.24675L23.9999 5.37402L24.6139 6.24675C25.0461 6.86206 35.1981 21.4176 35.1981 30.8731C35.1981 37.0469 30.1751 42.0712 23.9999 42.0712ZM23.9999 8.01698C21.7796 11.3592 14.3022 23.1878 14.3022 30.8745C14.3022 36.2223 18.6521 40.5722 23.9999 40.5722C29.3478 40.5722 33.6977 36.2223 33.6977 30.8745C33.6977 23.1878 26.2203 11.3606 23.9999 8.01698Z" fill="black"/>
<path d="M29.8255 31.5627C29.5103 34.2401 27.3863 36.3709 24.7117 36.6958C24.3703 36.7371 24.0853 37 24.0413 37.3414C23.9766 37.8397 24.3964 38.2444 24.8768 38.188C28.2521 37.786 30.935 35.0921 31.3191 31.71C31.3686 31.2695 31.0148 30.8882 30.5716 30.8882C30.1862 30.8882 29.8709 31.1814 29.8255 31.5641V31.5627Z" fill="black"/>
<path d="M31.9951 17.0663L41.2895 7.77185L40.2282 6.71191L31.2876 15.6525C31.5257 16.1164 31.7625 16.5872 31.9951 17.0663Z" fill="black"/>
<path d="M24 48C10.7659 48 0 37.2341 0 24C0 10.7659 10.7659 0 24 0C37.2341 0 48 10.7659 48 24C48 37.2341 37.2341 48 24 48ZM24 1.50043C11.5932 1.50043 1.50043 11.5932 1.50043 24C1.50043 36.4068 11.5932 46.4996 24 46.4996C36.4068 46.4996 46.4996 36.4054 46.4996 24C46.4996 11.5946 36.4068 1.50043 24 1.50043Z" fill="black"/>
</g>
<defs>
<clipPath id="clip0_78_319">
<rect width="48" height="48" fill="white"/>
</clipPath>
</defs>
</svg>
