<svg width="153" height="136" viewBox="0 0 153 136" fill="none" xmlns="http://www.w3.org/2000/svg">
<circle cx="76.3572" cy="39.3855" r="39.3855" fill="#1AE17A"/>
<g clip-path="url(#clip0_134_22)">
<path d="M59.0034 58.5128C61.1012 60.5831 63.8864 61.7821 66.6431 62.7574C71.7253 64.4587 77.3 64.9129 82.5418 63.661C84.3883 63.0961 86.275 62.6048 87.9971 61.7177C89.5905 61.162 90.8504 60.0322 92.2724 59.1767C93.1473 58.5955 93.8373 57.7959 94.6609 57.1526C95.5223 56.53 96.0922 55.6265 96.8193 54.8725C97.9059 53.7154 99.0556 52.5371 99.6206 51.0316C99.8879 50.1645 100.904 49.6112 100.817 48.6268C100.773 48.1817 101.306 48.0133 101.439 47.6357C102.23 45.7338 102.775 43.737 103.056 41.7038C103.202 40.5947 103.012 39.4583 103.276 38.3633C103.457 37.208 103.124 36.0716 103.051 34.9255C102.849 33.2376 102.42 31.5801 101.854 29.9779C100.484 26.123 97.6664 22.9783 94.5996 20.3109C93.2482 19.1903 91.6505 18.4248 90.1183 17.5766C88.166 16.583 86.0993 15.7896 83.9496 15.3262C79.9583 14.1637 75.6738 14.1637 71.5984 14.9292C70.4159 15.201 69.294 15.6923 68.0929 15.8838C63.9748 17.334 60.087 19.6141 57.1873 22.8695C54.1416 26.1595 52.1546 30.2333 50.5965 34.3691C50.0142 36.1956 49.3645 38.0465 49.3973 39.9879C49.2964 40.7692 49.831 41.4198 50.1015 42.116C50.3855 41.6527 50.6856 41.2009 51.0049 40.7601C51.5049 39.7411 51.7202 38.6162 52.1243 37.5625C52.4764 36.6657 52.8446 35.7755 53.1639 34.8671C53.1144 34.7935 53.0185 34.6433 52.969 34.5698C53.042 34.5582 53.1874 34.5351 53.2598 34.5236C54.8742 30.6206 56.8804 26.7469 59.9867 23.7681C61.9953 21.488 64.8814 20.3236 67.5608 19.0048C69.2736 18.2691 71.1269 17.9535 72.9548 17.6167C77.0166 16.9247 81.2281 17.1625 85.1909 18.2715C90.2118 19.8992 94.6844 23.1455 97.6924 27.4224C98.5766 28.8841 99.4498 30.3847 99.9825 32.0106C100.341 33.9654 100.595 35.9415 100.862 37.9103C100.947 38.5372 100.649 39.1227 100.607 39.7429C100.426 41.933 99.9262 44.0885 99.2084 46.1686C98.2041 48.6882 96.7586 51.0261 95.0483 53.1427C91.3176 57.3666 86.0479 60.2414 80.4261 61.1176C80.0505 61.03 79.8581 61.4775 80.0815 61.7311C80.6143 61.604 81.1489 61.4818 81.6984 61.4337C80.415 62.1026 78.8872 61.8004 77.5054 62.0722C77.6836 61.8995 77.8575 61.7238 78.0264 61.542C76.9893 61.5256 75.9522 61.5487 74.9176 61.6064C75.1008 61.7469 75.2858 61.8898 75.469 62.0375C75.1193 61.8855 74.7982 61.68 74.4269 61.59C73.6528 61.3736 72.8267 61.7074 72.0687 61.4058C68.5044 60.6774 64.8418 59.7161 61.8926 57.5235C60.1965 56.1633 58.8822 54.4019 57.7745 52.562C57.282 51.8336 57.1669 50.9343 56.6576 50.215C56.5382 49.7055 56.4348 49.1911 56.2424 48.7046C56.1205 47.0654 55.9961 45.4122 56.1366 43.7711C56.2424 42.7727 56.1978 41.7652 56.0803 40.7717C56.1718 40.9608 56.3525 41.3414 56.4441 41.5323C56.8921 39.3562 57.7343 37.2858 58.5208 35.2106C58.6192 34.9109 58.8518 34.5607 58.6074 34.2633C57.8469 34.104 57.2652 34.7339 56.829 35.2526C56.8408 35.1121 56.8686 34.8355 56.8804 34.6969L56.6013 34.7935C55.8364 35.6995 55.3272 36.7994 54.9027 37.8945C54.5135 39.1416 53.9312 40.3339 53.7251 41.6314C53.2654 44.0338 53.167 46.5401 53.7418 48.9333C54.6168 52.486 56.269 55.9718 59.0047 58.5128H59.0034ZM61.5609 19.9831C60.7775 20.4465 60.1296 21.0922 59.3531 21.5622C60.2961 20.4902 61.3895 19.439 62.7484 18.913C62.6055 19.4846 61.9786 19.6463 61.5609 19.9825V19.9831ZM67.3844 16.8937C66.6784 17.2397 65.9179 17.4702 65.226 17.8435C64.4891 18.201 63.7997 18.6899 62.9687 18.8188C64.1797 17.6544 65.9042 17.2093 67.3962 16.4809C67.3937 16.5849 67.3869 16.7922 67.3844 16.8937ZM71.1294 15.7665C70.1653 16.0571 69.2173 16.4693 68.187 16.4395C68.8602 15.8795 69.7593 15.598 70.6343 15.6096C71.4276 15.6418 72.1924 15.3718 72.9833 15.3329C72.3806 15.5451 71.7352 15.5725 71.1294 15.7665ZM82.6216 61.1528C84.8437 60.6549 86.8288 59.5087 88.9241 58.6721C91.0261 57.2383 93.2835 55.9286 94.9022 53.9343C95.4468 53.353 95.8453 52.6453 96.4672 52.1358C96.2747 52.6775 95.8973 53.1202 95.5031 53.5354C95.6535 53.7616 95.9115 53.789 96.1621 53.7635C96.0192 53.9063 95.8385 54.0079 95.7209 54.1787C95.4981 54.1787 95.3292 53.9872 95.1275 53.9228C93.8719 55.306 92.4363 56.519 91.0001 57.7175C89.2335 58.7712 87.5014 59.9702 85.5003 60.56C84.2447 60.7144 83.1117 61.3207 81.8914 61.618C81.9193 61.2355 82.3444 61.2678 82.621 61.1522L82.6216 61.1528Z" fill="black"/>
<path d="M79.039 32.8499C79.7123 32.3355 80.1207 31.5822 80.6931 30.9802C82.0891 29.7192 84.0339 29.3179 85.8643 29.1634C86.5234 29.085 87.1242 29.3847 87.7554 29.5094C87.7907 29.1269 87.8327 28.7463 87.8798 28.3681C86.8965 27.8519 85.7307 27.7479 84.9232 26.9435C82.2413 26.7708 79.5644 28.3547 78.4592 30.7638C78.971 31.4253 78.0465 31.9306 78.0836 32.569C78.3955 32.6772 78.7123 32.7763 79.0384 32.8505L79.039 32.8499Z" fill="black"/>
<path d="M70.8248 32.5455C69.3911 32.3516 67.8942 32.7808 66.7538 33.6473C65.3107 34.7192 64.64 36.4533 64.0435 38.067C64.3603 38.5468 64.8015 38.8994 65.4116 38.8994C66.0496 37.9472 66.3528 36.7555 67.3311 36.0496C68.138 34.9752 69.534 34.5557 70.8415 34.5259C71.9913 34.4541 73.094 34.8603 74.2369 34.9083C74.1428 34.3988 74.089 33.8339 73.7561 33.4144C72.8365 32.9717 71.8322 32.7133 70.8255 32.5449L70.8248 32.5455Z" fill="black"/>
<path d="M69.4683 45.6982C69.0648 46.1986 68.4639 46.4267 67.9033 46.7057C67.9454 46.8948 68.011 47.0791 68.0958 47.2566C69.3278 48.3103 70.855 49.0388 72.4954 49.237C72.3098 49.0527 72.1247 48.8703 71.9391 48.6928C72.8494 48.8126 73.7695 48.8314 74.6841 48.8934C74.7262 48.9536 74.8134 49.0758 74.8555 49.1354C74.0814 49.2437 73.241 48.8703 72.5183 49.1883C73.1309 49.5434 73.8883 49.4626 74.5739 49.5434C76.3715 49.7812 78.2508 49.6887 79.9562 49.0315C79.9494 48.9694 79.9352 48.8448 79.9277 48.7822C78.942 48.6782 77.9476 49.0059 76.9643 49.0977C78.567 48.8004 80.0589 48.134 81.6641 47.83C81.1573 48.1115 80.6035 48.2957 80.0917 48.5633C80.153 48.6672 80.2749 48.877 80.3355 48.9828C82.2198 48.3559 83.9536 47.3503 85.4084 46.0132C86.2036 46.668 86.917 47.47 87.8978 47.8671C89.05 48.3304 90.4157 48.3997 91.5512 47.8555C92.9849 47.2055 93.8222 45.7645 94.3432 44.3673C94.6507 43.6042 94.1576 42.8593 94.092 42.1011C93.6743 41.2827 93.3785 40.3628 92.6607 39.7377C92.0345 39.0853 91.1966 38.7162 90.4269 38.2669C90.3891 37.5774 90.4386 36.8557 90.1521 36.2081C90.0228 36.1345 89.7629 35.9892 89.6336 35.915C89.1546 36.2653 88.4888 36.4775 88.2821 37.0818C87.6652 38.4146 87.3551 39.8782 86.581 41.1417C86.3162 41.5703 85.8397 41.7989 85.5043 42.1607C84.4227 43.3111 83.414 44.6555 81.898 45.2757C80.2836 46.0892 78.5311 46.7191 76.6964 46.7556C74.2466 46.9283 71.7386 46.6516 69.4676 45.6976L69.4683 45.6982ZM87.3638 43.9854C88.2833 42.759 89.0203 41.4122 89.8582 40.1396C90.9163 40.6929 91.8853 41.484 92.4485 42.5395C92.8049 44.1465 91.5828 45.4447 90.3037 46.226C90.7752 46.0856 91.2022 45.8436 91.6502 45.652C91.6199 46.3367 90.8006 46.4084 90.2635 46.4935C88.8489 46.4637 87.3731 46.1731 86.263 45.2556C86.5588 44.774 86.9715 44.3843 87.3632 43.9854H87.3638ZM85.1956 45.4611C84.8837 46.2309 84.0062 46.6072 83.281 46.9344C83.8936 46.4157 84.5056 45.8831 85.1956 45.4611Z" fill="black"/>
<path d="M79.6468 61.7885C79.6561 61.6547 79.6796 61.3896 79.6914 61.2583C79.1141 61.3945 78.4433 61.2996 77.939 61.6432C78.2979 62.146 79.1048 61.6894 79.6468 61.7885Z" fill="black"/>
</g>
<path d="M130.898 107.489C131.695 106.92 132.681 106.788 133.857 107.091C134.084 107.129 134.312 107.148 134.539 107.148C135.374 105.441 136.815 104.55 138.863 104.474C139.394 104.436 140.134 104.341 141.082 104.19C142.03 104.038 143.168 104.076 144.495 104.303C145.861 104.531 147.055 104.929 148.079 105.498C150.317 106.712 151.663 108.456 152.119 110.732C153.029 114.07 152.896 117.711 151.72 121.655C150.469 126.017 148.345 129.506 145.349 132.123C143.983 133.337 142.542 134.095 141.025 134.399C139.508 134.74 138.142 134.93 136.929 134.968C135.715 135.005 134.596 135.005 133.572 134.968C132.586 134.968 131.619 134.873 130.671 134.683C128.623 134.266 126.935 133.299 125.607 131.782C124.052 130.075 123.389 127.42 123.616 123.817C123.768 120.631 124.565 117.426 126.006 114.202C127.485 110.941 129.116 108.703 130.898 107.489ZM140.911 118.924C139.963 119.228 139.072 119.361 138.237 119.323C137.82 119.74 137.441 120.195 137.099 120.688C136.796 121.143 136.379 121.579 135.848 121.996C135.317 122.376 135.051 122.527 135.051 122.452C134.407 123.362 133.876 124.31 133.458 125.296C133.041 126.244 133.041 127.211 133.458 128.198C134.976 128.349 136.094 128.311 136.815 128.084C137.536 127.856 138.199 127.42 138.806 126.775C139.451 126.131 139.944 125.372 140.285 124.5C140.968 122.869 141.177 121.01 140.911 118.924Z" fill="#1AE17A"/>
<path d="M106.239 108.229C106.77 106.863 107.509 105.839 108.457 105.157C109.443 104.436 110.373 104 111.245 103.848C112.155 103.658 112.895 103.753 113.464 104.133C114.07 104.512 114.279 105.1 114.089 105.896C114.81 105.176 115.853 104.512 117.218 103.905C118.584 103.298 119.665 102.881 120.461 102.653C121.258 102.426 121.94 102.312 122.509 102.312C123.761 102.388 124.121 103.071 123.59 104.36C124.235 104.474 124.709 104.891 125.012 105.612C125.316 106.332 125.354 107.129 125.126 108.001C124.899 108.873 124.387 109.727 123.59 110.561C122.794 111.396 121.713 111.964 120.347 112.268C119.02 112.571 117.901 113.273 116.991 114.373C116.119 115.435 115.341 116.762 114.658 118.355C113.521 121.048 112.496 124.86 111.586 129.79C111.283 131.573 110.05 133.071 107.888 134.285C105.84 135.46 103.963 135.802 102.256 135.309C100.322 134.778 99.4685 133.355 99.6961 131.042C99.7719 129.411 100.265 127.249 101.175 124.556C102.085 121.826 102.787 119.777 103.28 118.412C103.773 117.009 104.115 115.947 104.304 115.226L106.239 108.229Z" fill="#1AE17A"/>
<path d="M83.9487 106.522C84.1383 108.798 84.309 111.092 84.4607 113.406C84.6124 115.682 84.84 117.957 85.1434 120.233C85.8261 118.83 86.4519 117.35 87.0208 115.795C87.6276 114.24 88.2724 112.704 88.9551 111.187C90.5859 107.622 92.3875 105.005 94.3597 103.336C95.5734 102.009 97.3938 101.345 99.8212 101.345C101.262 101.345 102.173 101.8 102.552 102.711C102.742 103.166 102.685 103.773 102.381 104.531C104.24 105.859 104.638 107.395 103.576 109.139C103.273 109.594 102.969 110.012 102.666 110.391C101.035 113.122 99.5367 115.644 98.1714 117.957C95.9337 121.788 93.9235 125.069 92.1409 127.799C91.5341 128.71 90.6807 129.734 89.5809 130.871C88.5189 131.971 87.3432 132.92 86.0536 133.716C83.0195 135.688 80.6111 136.049 78.8285 134.797C77.6528 134.645 76.5529 134.266 75.5289 133.659C74.5048 133.052 73.7273 132.256 73.1963 131.27C72.3999 129.184 72.5895 124.405 73.7653 116.933C74.0307 115.264 74.2014 114.013 74.2773 113.178C74.3531 112.344 74.4479 111.586 74.5617 110.903C74.6755 110.22 74.7703 109.575 74.8462 108.969C74.922 108.362 74.9979 107.755 75.0737 107.148C75.1496 106.503 75.3203 105.915 75.5858 105.384C76.2305 104.171 77.4063 103.507 79.113 103.393H79.7957C80.4783 103.545 81.1231 103.716 81.7299 103.905C82.754 104.285 83.4367 105.005 83.778 106.067C83.8159 106.181 83.8728 106.333 83.9487 106.522Z" fill="#1AE17A"/>
<path d="M66.931 107.375L67.1586 107.432C67.2344 107.432 67.2724 107.451 67.2724 107.489C68.2585 107.11 69.0739 107.394 69.7187 108.342C70.1359 108.987 70.4583 109.973 70.6858 111.301C70.7617 113.121 70.572 115.643 70.1169 118.867C69.2446 125.391 68.7705 129.278 68.6946 130.53C68.7705 131.857 67.9551 132.767 66.2483 133.26C64.7692 133.716 63.29 133.697 61.8109 133.204C60.2559 132.673 59.6111 131.857 59.8766 130.757C59.5732 131.326 59.2697 131.724 58.9663 131.952C58.6629 132.217 58.0561 132.559 57.1458 132.976C56.2735 133.431 55.0219 133.791 53.391 134.057C51.7602 134.36 50.1293 134.436 48.4984 134.284C46.8676 134.171 45.3695 133.772 44.0041 133.09C42.6766 132.445 41.7853 131.421 41.3302 130.018C40.4579 127.287 40.5717 123.817 41.6716 119.607C42.4301 116.838 43.7955 114.392 45.7677 112.268C48.0433 109.84 50.6224 107.83 53.5048 106.237C55.6667 105.062 57.7527 104.36 59.7628 104.132C60.4455 104.057 61.0334 104.076 61.5264 104.189C62.0574 104.303 62.6073 104.417 63.1762 104.531C63.7831 104.644 64.352 104.815 64.883 105.043C66.2483 105.612 66.931 106.389 66.931 107.375ZM56.4062 122.451C56.6717 121.92 56.8803 121.257 57.032 120.46C57.2217 119.664 57.4682 118.791 57.7716 117.843C54.6995 119.095 52.3481 120.631 50.7172 122.451C48.9346 124.461 49.0484 125.846 51.0585 126.604C52.8032 127.059 54.0737 126.775 54.8702 125.751C55.2115 125.296 55.515 124.727 55.7805 124.044C56.0459 123.361 56.3683 122.66 56.7476 121.939C56.6338 122.129 56.52 122.3 56.4062 122.451Z" fill="#1AE17A"/>
<path d="M23.899 90.2514C24.2783 91.2755 24.4869 91.9582 24.5248 92.2995C24.6007 93.0201 24.3352 93.6269 23.7284 94.12C23.7284 94.1579 23.6904 94.2148 23.6146 94.2907C23.9559 96.0732 24.0318 97.742 23.8421 99.297C23.6525 100.852 23.406 102.35 23.1026 103.791C25.1506 100.302 26.7815 97.742 27.9952 96.1112C30.4984 92.7357 32.8309 90.3273 34.9927 88.8861C35.7133 88.4689 36.5857 88.1654 37.6097 87.9758C38.6716 87.7482 39.6767 87.7103 40.6249 87.862C41.5731 88.0137 42.3506 88.393 42.9574 88.9998C43.6022 89.6067 43.8866 90.5169 43.8108 91.7306C42.7488 99.1264 41.611 106.029 40.3973 112.439C39.1837 118.811 37.6097 124.898 35.6754 130.701V130.814H35.6185C35.1634 132.18 34.0256 133.147 32.2051 133.716C30.4225 134.247 28.8296 134.285 27.4263 133.83C25.7195 133.337 24.942 132.426 25.0937 131.099L25.1506 129.79V129.677C25.3023 128.766 25.3782 128.16 25.3782 127.856C25.4161 127.515 25.454 127.268 25.492 127.117C25.5678 126.13 25.7195 125.22 25.9471 124.386C26.2126 123.514 26.4022 122.812 26.516 122.281C26.6298 121.75 26.7436 121.257 26.8573 120.802C26.9711 120.309 27.047 119.929 27.0849 119.664C25.6437 121.636 24.6196 122.831 24.0128 123.248C22.4957 124.31 20.7321 124.803 18.722 124.727C17.4704 124.651 16.7498 124.367 16.5601 123.874C16.1809 122.812 15.9154 122.186 15.7637 121.996C15.5361 121.693 15.3465 121.181 15.1948 120.46C14.2087 124.822 13.2415 127.913 12.2933 129.734C11.9141 130.454 11.5348 131.099 11.1555 131.668C10.6245 132.919 9.41087 133.792 7.51452 134.285C5.73194 134.778 4.02522 134.74 2.39436 134.171C0.725562 133.64 -0.0709072 132.692 0.00494702 131.327C0.0808013 129.961 0.365255 128.254 0.858307 126.206C1.31343 124.12 1.86338 121.921 2.50814 119.607C4.44242 112.287 5.8078 107.527 6.60427 105.327C7.43866 103.128 8.14031 101.402 8.70922 100.15C10.0746 97.23 11.2883 95.1061 12.3502 93.7787C13.526 91.3892 15.4792 89.948 18.21 89.455C20.3718 89.0378 22.2682 89.3033 23.899 90.2514Z" fill="#1AE17A"/>
<defs>
<clipPath id="clip0_134_22">
<rect width="53.9441" height="49.9776" fill="white" transform="translate(49.3853 14.397)"/>
</clipPath>
</defs>
</svg>
