<svg width="227" height="111" viewBox="0 0 227 111" fill="none" xmlns="http://www.w3.org/2000/svg">
<path d="M194.275 29.2652C195.457 28.4209 196.921 28.2239 198.666 28.6742C199.003 28.7305 199.341 28.7586 199.679 28.7586C200.917 26.2256 203.056 24.9028 206.096 24.7902C206.884 24.7339 207.982 24.5932 209.389 24.368C210.796 24.1428 212.485 24.1991 214.455 24.5369C216.481 24.8746 218.255 25.4657 219.774 26.31C223.096 28.1113 225.094 30.7006 225.769 34.0781C227.12 39.0316 226.923 44.4354 225.178 50.2896C223.321 56.763 220.168 61.9417 215.722 65.8257C213.695 67.627 211.556 68.7528 209.304 69.2031C207.053 69.7097 205.026 69.9912 203.225 70.0474C201.424 70.1037 199.763 70.1037 198.243 70.0474C196.78 70.0474 195.344 69.9067 193.937 69.6253C190.898 69.0061 188.393 67.5707 186.422 65.3191C184.115 62.786 183.13 58.8457 183.467 53.4982C183.692 48.7698 184.875 44.0133 187.014 39.2286C189.209 34.3876 191.629 31.0665 194.275 29.2652ZM209.136 46.2367C207.728 46.687 206.405 46.8841 205.167 46.8278C204.548 47.447 203.985 48.1224 203.478 48.8542C203.028 49.5297 202.409 50.177 201.621 50.7962C200.833 51.3591 200.439 51.5843 200.439 51.4717C199.482 52.8227 198.694 54.2299 198.075 55.6935C197.455 57.1007 197.455 58.5361 198.075 59.9997C200.326 60.2248 201.987 60.1685 203.056 59.8308C204.126 59.493 205.111 58.8457 206.011 57.8888C206.968 56.9318 207.7 55.806 208.207 54.5114C209.22 52.0909 209.53 49.3327 209.136 46.2367Z" fill="#315E4A"/>
<path d="M157.675 30.3628C158.464 28.3364 159.561 26.8165 160.968 25.8033C162.432 24.7338 163.811 24.0865 165.106 23.8613C166.457 23.5798 167.554 23.7206 168.399 24.2835C169.299 24.8464 169.609 25.7189 169.328 26.901C170.397 25.8314 171.945 24.8464 173.971 23.9457C175.998 23.0451 177.602 22.4259 178.784 22.0882C179.966 21.7504 180.98 21.5815 181.824 21.5815C183.682 21.6941 184.216 22.7073 183.428 24.6212C184.385 24.7901 185.089 25.4093 185.539 26.4788C185.989 27.5483 186.046 28.7304 185.708 30.0251C185.37 31.3197 184.61 32.5863 183.428 33.8246C182.246 35.063 180.642 35.9074 178.615 36.3577C176.645 36.808 174.985 37.8494 173.634 39.4818C172.339 41.0579 171.185 43.0281 170.172 45.3923C168.483 49.3889 166.963 55.046 165.612 62.3637C165.162 65.0094 163.333 67.2328 160.124 69.0341C157.084 70.7791 154.298 71.2857 151.765 70.554C148.894 69.7659 147.628 67.655 147.965 64.2213C148.078 61.8008 148.81 58.5923 150.161 54.5957C151.512 50.5428 152.553 47.5031 153.285 45.4767C154.017 43.394 154.523 41.8178 154.805 40.7483L157.675 30.3628Z" fill="#315E4A"/>
<path d="M124.594 27.8298C124.876 31.2073 125.129 34.6128 125.354 38.0465C125.58 41.4239 125.917 44.8013 126.368 48.1787C127.381 46.096 128.31 43.9007 129.154 41.5928C130.055 39.2849 131.012 37.0051 132.025 34.7535C134.445 29.4623 137.119 25.5782 140.046 23.1015C141.847 21.1313 144.549 20.1462 148.152 20.1462C150.291 20.1462 151.642 20.8217 152.205 22.1727C152.486 22.8482 152.402 23.7488 151.951 24.8746C154.71 26.8448 155.301 29.1245 153.725 31.7139C153.274 32.3893 152.824 33.0085 152.374 33.5714C149.953 37.6243 147.73 41.3676 145.703 44.8013C142.382 50.4866 139.399 55.3557 136.753 59.4086C135.853 60.7596 134.586 62.2794 132.954 63.9681C131.377 65.6005 129.632 67.0078 127.719 68.1899C123.215 71.117 119.641 71.6517 116.995 69.7941C115.25 69.569 113.618 69.0061 112.098 68.1054C110.578 67.2048 109.424 66.0227 108.636 64.5592C107.454 61.4632 107.736 54.3706 109.481 43.2815C109.875 40.8047 110.128 38.9471 110.241 37.7088C110.353 36.4704 110.494 35.3446 110.663 34.3314C110.832 33.3181 110.972 32.3612 111.085 31.4606C111.197 30.5599 111.31 29.6593 111.423 28.7586C111.535 27.8017 111.788 26.9292 112.183 26.1411C113.139 24.3399 114.884 23.3548 117.417 23.1859H118.431C119.444 23.4111 120.401 23.6644 121.302 23.9458C122.821 24.5087 123.835 25.5782 124.341 27.1544C124.397 27.3232 124.482 27.5484 124.594 27.8298Z" fill="#315E4A"/>
<path d="M99.3375 29.0964L99.6752 29.1809C99.7878 29.1809 99.8441 29.209 99.8441 29.2653C101.308 28.7024 102.518 29.1246 103.475 30.5318C104.094 31.4887 104.572 32.9523 104.91 34.9224C105.023 37.6244 104.741 41.3677 104.066 46.1523C102.771 55.8342 102.068 61.604 101.955 63.4615C102.068 65.4317 100.857 66.7827 98.3242 67.5144C96.1289 68.1899 93.9336 68.1618 91.7383 67.43C89.4304 66.6419 88.4735 65.4317 88.8675 63.7993C88.4172 64.6436 87.9669 65.2347 87.5165 65.5724C87.0662 65.9664 86.1656 66.4731 84.8146 67.0923C83.5199 67.7677 81.6624 68.3025 79.2419 68.6965C76.8214 69.1468 74.4009 69.2594 71.9805 69.0343C69.56 68.8654 67.3365 68.2743 65.3101 67.2611C63.3399 66.3042 62.0171 64.7844 61.3416 62.7016C60.047 58.6487 60.2158 53.4982 61.8482 47.25C62.974 43.1408 65.0005 39.5101 67.9276 36.3578C71.305 32.7553 75.1327 29.7719 79.4108 27.4077C82.6193 25.6627 85.7153 24.6214 88.6986 24.2836C89.7119 24.171 90.5844 24.1992 91.3161 24.368C92.1042 24.5369 92.9204 24.7058 93.7647 24.8747C94.6654 25.0435 95.5097 25.2968 96.2978 25.6346C98.3242 26.4789 99.3375 27.6329 99.3375 29.0964ZM83.717 51.4717C84.111 50.6837 84.4206 49.6986 84.6457 48.5165C84.9272 47.3344 85.2931 46.0397 85.7434 44.6325C81.1839 46.4901 77.6939 48.7698 75.2734 51.4717C72.6278 54.4551 72.7967 56.5097 75.78 57.6355C78.3694 58.311 80.2551 57.8888 81.4372 56.369C81.9438 55.6935 82.3941 54.8492 82.7882 53.8359C83.1822 52.8227 83.6607 51.7813 84.2236 50.7118C84.0547 50.9933 83.8858 51.2466 83.717 51.4717Z" fill="#315E4A"/>
<path d="M35.4701 3.68137C36.033 5.20121 36.3426 6.21443 36.3989 6.72104C36.5115 7.79055 36.1175 8.69119 35.2168 9.42296C35.2168 9.47925 35.1605 9.56369 35.0479 9.67627C35.5546 12.3219 35.6671 14.7987 35.3857 17.1066C35.1042 19.4145 34.7383 21.6379 34.288 23.777C37.3277 18.5983 39.7482 14.7987 41.5495 12.3782C45.2646 7.36838 48.7264 3.79396 51.935 1.65493C53.0045 1.03574 54.2992 0.585417 55.819 0.303966C57.3951 -0.0337733 58.8868 -0.0900647 60.2941 0.135096C61.7013 0.360257 62.8553 0.923158 63.7559 1.8238C64.7128 2.72444 65.135 4.0754 65.0224 5.87669C63.4463 16.8533 61.7576 27.0981 59.9563 36.6111C58.155 46.0678 55.819 55.1024 52.9482 63.7148V63.8837H52.8638C52.1883 65.9101 50.4996 67.3455 47.7977 68.1899C45.152 68.9779 42.7878 69.0342 40.7051 68.3587C38.172 67.627 37.0181 66.276 37.2433 64.3058L37.3277 62.3638V62.195C37.5529 60.844 37.6654 59.9433 37.6654 59.493C37.7217 58.9864 37.778 58.6205 37.8343 58.3954C37.9469 56.9318 38.172 55.5809 38.5098 54.3425C38.9038 53.0478 39.1853 52.0064 39.3541 51.2184C39.523 50.4303 39.6919 49.6985 39.8607 49.0231C40.0296 48.2913 40.1422 47.7284 40.1985 47.3344C38.0595 50.2615 36.5396 52.0346 35.639 52.6538C33.3874 54.2299 30.7699 54.9617 27.7865 54.8491C25.9289 54.7365 24.8594 54.3143 24.578 53.5826C24.0151 52.0064 23.621 51.0777 23.3959 50.7962C23.0581 50.3459 22.7767 49.586 22.5515 48.5165C21.088 54.9898 19.6526 59.5775 18.2453 62.2794C17.6824 63.3489 17.1195 64.3058 16.5566 65.1502C15.7686 67.0078 13.9673 68.3024 11.1528 69.0342C8.50715 69.766 5.9741 69.7097 3.55362 68.8653C1.07685 68.0773 -0.105238 66.67 0.00734219 64.6436C0.119922 62.6171 0.542098 60.0841 1.27387 57.0444C1.94935 53.9485 2.76556 50.6836 3.72249 47.2499C6.59329 36.3859 8.61973 29.3215 9.80182 26.0567C11.0402 22.7919 12.0816 20.2307 12.9259 18.3731C14.9524 14.0388 16.7537 10.8865 18.3298 8.91636C20.0748 5.37008 22.9737 3.23106 27.0266 2.49928C30.2351 1.88009 33.0496 2.27412 35.4701 3.68137Z" fill="#315E4A"/>
<path d="M85.0827 85.446C105.478 94.9306 127.988 95.7704 147.05 82.6297C148.49 81.6368 150.804 79.4744 152.056 78.1994C155.858 74.3289 156.905 74.1071 161.744 76.1701C167.62 78.6754 169.38 83.3737 173.479 87.6347C166.77 97.382 160.207 98.7108 150.794 104.388C151.979 103.235 154.682 101.22 155.1 99.833C155.663 97.9674 156.235 96.75 157.131 94.9881C153.611 96.1243 149.566 95.8796 145.961 96.7196C142.732 97.4719 139.623 98.9619 136.523 99.8199C125.889 102.762 115.183 103.864 104.258 101.852C102.247 101.482 96.8708 101.304 95.1352 100.617C92.7193 101.069 91.5339 100.733 89.2712 99.9596C84.0532 98.408 77.7287 94.7254 72.3241 92.3317L71.6414 92.8124C73.9843 94.0577 76.219 95.5136 78.5987 96.8536C90.7286 103.685 108.122 109.281 122.135 108.793C126.004 108.659 135.774 106.022 139.672 104.97C139.03 105.436 138.552 105.726 138.092 106.377L138.378 106.652C141.738 106.313 143.652 105.718 147.647 105.522C145.851 106.473 141.7 107.449 139.614 107.926C131.004 109.938 122.126 110.549 113.321 109.734C107.038 109.129 100.574 107.837 94.2537 107.233C92.5272 107.056 89.4875 104.67 88.0911 104.385C76.2405 101.962 65.296 94.4752 56.7663 86.1201C55.6927 85.0684 54.0144 83.4087 53.1741 82.0804L53.3349 81.7674C54.897 81.5241 57.716 84.804 59.0128 84.6734C59.0851 83.1538 60.6989 80.1224 61.7395 78.9713C63.6123 78.3238 62.7925 80.3076 65.1691 78.2355C66.3486 77.9882 69.7066 80.2344 70.9608 80.9338C71.189 80.4114 71.3086 80.0749 71.4785 79.5305C72.4302 79.808 75.5258 81.6184 76.5652 82.1978L76.6695 82.1461C77.1438 81.9052 77.2538 81.8122 77.6553 81.4671C78.8385 81.6197 84.232 84.5762 85.0827 85.446Z" fill="#315E4A"/>
</svg>
