<svg width="230" height="172" viewBox="0 0 230 172" fill="none" xmlns="http://www.w3.org/2000/svg">
<g clip-path="url(#clip0_118_616)">
<style>
  #legs {
    transform-box: fill-box;
    transform-origin: 50% 0%;
    animation: legWalk 0.7s ease-in-out infinite;
  }
  @keyframes legWalk {
    0%   { transform: rotate(-14deg); }
    50%  { transform: rotate(14deg); }
    100% { transform: rotate(-14deg); }
  }
</style>
<g id="legs">
<path d="M115.994 157.197C116.018 157.156 116.046 157.119 116.067 157.078C116.149 156.932 115.931 157.212 116.002 157.158C116.076 157.104 116.136 157.007 116.203 156.945C116.313 156.841 116.525 156.727 116.268 156.88C116.369 156.819 116.462 156.744 116.561 156.684C116.786 156.545 117.023 156.435 117.26 156.323C117.5 156.209 117.135 156.369 117.267 156.319C117.327 156.295 117.388 156.269 117.45 156.246C117.612 156.183 117.776 156.125 117.94 156.071C119.526 155.54 121.196 155.262 122.849 155.031C122.918 155.022 122.987 155.011 123.056 155.003C123.222 154.979 122.819 155.033 123.093 154.999C123.207 154.983 123.322 154.968 123.436 154.955C123.73 154.919 124.025 154.884 124.319 154.85C124.88 154.787 125.441 154.729 126.004 154.677C127.279 154.558 128.554 154.466 129.834 154.388C132.805 154.207 135.779 154.107 138.754 154.043C146.059 153.887 153.367 153.948 160.671 154.056C169.078 154.181 177.485 154.386 185.89 154.589C194.448 154.796 203.006 155.005 211.566 155.137C212.582 155.152 213.601 155.167 214.617 155.18C215.178 155.186 215.541 154.727 215.588 154.209C216.572 143.609 216.453 132.912 215.219 122.338C214.867 119.324 214.429 116.321 213.905 113.332C213.726 112.31 212.319 112.515 212.032 113.332C210.767 116.946 209.779 120.646 209.074 124.409C209.473 124.183 209.87 123.956 210.269 123.732C208.031 123.279 205.727 123.164 203.45 123.141C200.423 123.108 197.395 123.266 194.379 123.494C190.736 123.773 187.103 124.17 183.48 124.634C179.393 125.158 175.314 125.764 171.249 126.435C167.039 127.13 162.84 127.894 158.654 128.718C154.442 129.546 150.241 130.433 146.052 131.384C142.067 132.291 138.092 133.253 134.139 134.291C130.589 135.223 127.053 136.211 123.546 137.296C120.637 138.198 117.742 139.16 114.904 140.265C112.774 141.095 110.638 141.982 108.657 143.132C108.31 143.335 107.967 143.546 107.634 143.773C106.607 144.472 107.578 146.155 108.614 145.449C109.343 144.953 110.116 144.524 110.901 144.122C111.374 143.883 111.851 143.654 112.334 143.432C112.584 143.318 112.835 143.205 113.085 143.095C113.215 143.039 113.346 142.981 113.476 142.925C113.542 142.897 113.609 142.869 113.674 142.841C113.825 142.776 113.525 142.903 113.78 142.796C116.421 141.697 119.12 140.75 121.841 139.868C128.984 137.553 136.269 135.663 143.575 133.945C151.835 132.004 160.158 130.306 168.519 128.854C176.294 127.503 183.972 126.362 191.815 125.645C194.989 125.356 198.172 125.138 201.359 125.082C202.678 125.061 203.998 125.065 205.317 125.123C205.897 125.147 206.478 125.184 207.058 125.231C207.317 125.253 207.576 125.276 207.833 125.305C207.958 125.317 208.081 125.333 208.206 125.345C208.292 125.356 208.761 125.419 208.428 125.374C208.873 125.436 209.317 125.509 209.758 125.598C210.239 125.695 210.849 125.464 210.953 124.92C211.659 121.158 212.647 117.458 213.911 113.844H212.038C213.855 124.208 214.582 134.761 214.22 145.279C214.119 148.258 213.926 151.236 213.65 154.205L214.621 153.234C205.984 153.119 197.346 152.917 188.71 152.709C180.187 152.504 171.661 152.289 163.136 152.146C155.614 152.021 148.087 151.939 140.565 152.06C134.944 152.151 129.286 152.293 123.699 152.973C121.831 153.199 119.947 153.467 118.132 153.976C116.965 154.304 115.655 154.737 114.779 155.622C114.604 155.797 114.447 155.997 114.324 156.211C113.698 157.296 115.374 158.274 116 157.191L115.994 157.197Z" fill="#1E1E1B"/>
<path d="M101.614 156.217C101.029 155.203 99.8488 154.677 98.7979 154.297C97.2507 153.736 95.6 153.447 93.9773 153.208C88.6756 152.427 83.2875 152.241 77.9361 152.116C70.6168 151.945 63.2931 152.002 55.9738 152.107C47.5302 152.23 39.0888 152.435 30.6496 152.64C21.9989 152.849 13.3503 153.061 4.69749 153.197C3.67468 153.212 2.65187 153.227 1.63122 153.242L2.60224 154.213C1.62907 143.717 1.7348 133.125 2.93455 122.651C3.27117 119.706 3.70273 116.771 4.21414 113.852H2.34115C3.60563 117.466 4.59391 121.166 5.29952 124.929C5.40094 125.468 6.01592 125.704 6.49495 125.606C6.70858 125.563 6.9222 125.522 7.13798 125.488C7.25019 125.468 7.3624 125.451 7.4746 125.434C7.55876 125.421 8.01406 125.358 7.68391 125.401C8.20826 125.332 8.73261 125.278 9.25912 125.235C10.474 125.136 11.6953 125.095 12.9145 125.084C15.9354 125.058 18.9564 125.216 21.9687 125.449C29.6484 126.04 37.1446 127.097 44.7315 128.355C53.1147 129.745 61.4568 131.393 69.7428 133.279C77.2672 134.99 84.7656 136.879 92.1389 139.162C95.039 140.06 97.924 141.018 100.755 142.118C101.351 142.349 101.944 142.588 102.535 142.836C102.766 142.934 102.343 142.754 102.572 142.852C102.639 142.88 102.706 142.908 102.77 142.936C102.9 142.992 103.032 143.048 103.161 143.106C103.433 143.225 103.703 143.346 103.972 143.471C104.876 143.887 105.772 144.329 106.633 144.832C106.974 145.031 107.306 145.238 107.632 145.46C108.668 146.165 109.641 144.483 108.612 143.784C106.903 142.621 104.982 141.777 103.083 140.979C100.442 139.87 97.7363 138.923 95.0131 138.038C91.649 136.944 88.2505 135.958 84.8368 135.028C80.9722 133.975 77.0859 133.002 73.1867 132.085C69.0588 131.115 64.9137 130.208 60.7577 129.361C56.5348 128.5 52.3012 127.697 48.0546 126.961C43.9698 126.254 39.8764 125.606 35.7701 125.041C31.9831 124.519 28.1875 124.059 24.3811 123.712C21.1962 123.423 18.0026 123.205 14.8047 123.153C12.3124 123.112 9.80937 123.168 7.3365 123.509C6.8812 123.572 6.42806 123.647 5.97708 123.738C6.37627 123.965 6.77331 124.191 7.17251 124.415C6.4669 120.653 5.47862 116.953 4.21414 113.339C3.92715 112.521 2.52025 112.316 2.34115 113.339C0.498368 123.837 -0.274132 134.521 0.0862241 145.182C0.187642 148.196 0.379688 151.208 0.660204 154.211C0.707677 154.729 1.06587 155.188 1.63122 155.182C10.1568 155.07 18.6823 154.869 27.2079 154.664C35.645 154.461 44.0842 154.248 52.5234 154.103C59.9658 153.976 67.4124 153.892 74.8569 153.999C80.4759 154.081 86.125 154.217 91.7116 154.854C91.977 154.884 92.2425 154.916 92.5057 154.949C92.6352 154.964 92.7625 154.981 92.892 154.998C92.933 155.003 93.084 155.024 92.8855 154.998C92.9675 155.009 93.0516 155.022 93.1336 155.033C93.6083 155.1 94.0809 155.173 94.5513 155.253C95.3864 155.398 96.2193 155.566 97.0393 155.784C97.3737 155.872 97.7039 155.969 98.0319 156.081C98.1808 156.131 98.3275 156.185 98.4721 156.241C98.5325 156.265 98.5951 156.291 98.6555 156.314C98.7375 156.345 98.444 156.215 98.6857 156.327C98.9295 156.442 99.1712 156.558 99.3999 156.701C99.4884 156.757 99.5704 156.83 99.661 156.878C99.3935 156.733 99.6244 156.845 99.7387 156.955C99.8035 157.016 99.8596 157.108 99.9286 157.16C100.021 157.229 99.7948 156.921 99.8639 157.08C99.8811 157.121 99.9157 157.16 99.9372 157.199C100.561 158.28 102.24 157.305 101.614 156.22V156.217Z" fill="#1E1E1B"/>
</g>
<path d="M195.915 99.749C195.643 99.0305 195.436 98.2905 195.315 97.5311C195.315 97.5203 195.27 97.2053 195.295 97.4081C195.283 97.3131 195.274 97.2182 195.263 97.1233C195.248 96.9658 195.235 96.8061 195.226 96.6486C195.205 96.2711 195.205 95.8935 195.22 95.5159C195.235 95.1707 195.265 94.8277 195.306 94.4846C195.28 94.6917 195.321 94.3832 195.324 94.3681C195.339 94.2754 195.354 94.1804 195.369 94.0876C195.401 93.8999 195.438 93.7144 195.477 93.5288C195.63 92.8061 195.835 92.0962 196.072 91.3972C196.575 89.9215 197.121 88.7391 197.82 87.3001C198.256 86.4069 198.694 85.5136 199.149 84.6291C199.538 83.8696 199.956 83.1253 200.44 82.4219C200.5 82.3334 200.563 82.2428 200.627 82.1565C200.673 82.094 200.91 81.8243 200.705 82.0465C200.863 81.8761 200.999 81.6819 201.154 81.5093C201.294 81.3561 201.439 81.2051 201.592 81.0648C201.659 81.0023 201.728 80.9418 201.799 80.8814C201.84 80.8469 201.888 80.8146 201.926 80.7779C201.717 80.9807 201.879 80.8146 201.946 80.7692C202.101 80.6592 202.265 80.56 202.436 80.4737C202.466 80.4586 202.498 80.4456 202.526 80.4284C202.692 80.3356 202.3 80.506 202.479 80.4456C202.582 80.4111 202.682 80.3723 202.785 80.3442C202.828 80.3334 203.029 80.3183 203.051 80.286C203.005 80.3485 202.792 80.3075 202.988 80.2968C203.029 80.2946 203.07 80.2903 203.113 80.2903C203.206 80.2881 203.297 80.2924 203.389 80.2968C203.549 80.3032 203.463 80.3701 203.335 80.286C203.37 80.3075 203.448 80.3054 203.491 80.3162C203.597 80.3399 203.702 80.3701 203.806 80.4068C203.929 80.4499 203.922 80.5147 203.786 80.3938C203.808 80.4133 203.873 80.4327 203.894 80.4435C204.007 80.4974 204.114 80.5578 204.22 80.6225C204.272 80.6549 204.535 80.7865 204.55 80.8491C204.54 80.8059 204.393 80.7024 204.514 80.8275C204.546 80.8599 204.578 80.8944 204.611 80.9246C204.783 81.0929 204.505 80.7434 204.637 80.9526C204.691 81.0368 204.745 81.1209 204.79 81.2094C204.805 81.2396 204.818 81.2719 204.835 81.3022C204.917 81.4445 204.749 81.0691 204.842 81.3151C204.93 81.5481 204.993 81.7919 205.04 82.0357C205.051 82.0961 205.062 82.1565 205.073 82.2169C205.077 82.2472 205.081 82.2774 205.085 82.3097C205.096 82.3852 205.092 82.3507 205.073 82.2083C205.032 82.2838 205.107 82.5665 205.111 82.6592C205.144 83.231 205.12 83.8049 205.053 84.3723C205.047 84.4327 205.049 84.6571 205.053 84.3917C205.053 84.4823 205.025 84.5794 205.01 84.6679C204.986 84.806 204.962 84.9419 204.934 85.0778C204.876 85.3669 204.805 85.6517 204.723 85.9344C204.645 86.1997 204.553 86.4608 204.453 86.7175C204.393 86.8729 204.471 86.6679 204.481 86.6528C204.438 86.7089 204.414 86.8017 204.384 86.8664C204.328 86.9829 204.268 87.0973 204.205 87.2116C203.955 87.6539 204.084 88.2925 204.553 88.5407C205.012 88.7823 205.614 88.6658 205.882 88.1933C206.423 87.231 206.738 86.1329 206.905 85.0455C207.09 83.8372 207.151 82.6053 206.889 81.4014C206.786 80.9203 206.611 80.424 206.341 80.0098C206.024 79.5265 205.593 79.1619 205.092 78.8749C204.164 78.342 203.029 78.1673 202.011 78.547C200.107 79.259 198.864 81.1058 197.915 82.8103C197.512 83.533 197.151 84.2795 196.782 85.0217C196.02 86.5493 195.272 88.0854 194.644 89.6734C193.983 91.339 193.496 93.0607 193.325 94.8493C193.151 96.6767 193.394 98.5408 194.044 100.258C194.223 100.731 194.706 101.108 195.239 100.936C195.701 100.787 196.111 100.25 195.917 99.7404L195.915 99.749Z" fill="#1E1E1B"/>
<path d="M205.731 88.396C207.375 86.5534 208.873 84.5815 210.493 82.7195C211.43 81.6429 212.394 80.5857 213.422 79.5933C213.894 79.1359 214.382 78.6936 214.891 78.2772C214.947 78.2319 215.003 78.1865 215.062 78.1412C215.087 78.1197 215.295 77.9579 215.152 78.0679C215.012 78.1758 215.228 78.0118 215.262 77.9859C215.325 77.9406 215.387 77.8953 215.45 77.85C215.674 77.6882 215.905 77.535 216.143 77.3926C216.358 77.2631 216.581 77.1423 216.809 77.0344C216.846 77.0172 217.049 76.9309 216.865 77.0064C216.682 77.0841 216.881 77.0021 216.919 76.987C217.023 76.9481 217.127 76.9115 217.232 76.8812C217.332 76.851 217.433 76.8273 217.534 76.8057C217.58 76.7971 217.774 76.7691 217.562 76.7971C217.351 76.823 217.556 76.7993 217.603 76.7971C217.696 76.7906 217.791 76.7885 217.884 76.7928C217.927 76.7949 217.97 76.8014 218.013 76.8036C217.983 76.8036 217.731 76.7496 217.927 76.7971C218.013 76.8187 218.098 76.8446 218.184 76.8705C218.348 76.9201 217.949 76.7496 218.098 76.8338C218.139 76.8575 218.184 76.8769 218.225 76.9007C218.262 76.9222 218.298 76.9481 218.335 76.9697C218.503 77.0711 218.173 76.8208 218.27 76.9179C218.341 76.9891 218.417 77.0582 218.49 77.1315C218.631 77.2718 218.372 76.9503 218.441 77.0646C218.462 77.1013 218.49 77.138 218.514 77.1747C218.538 77.2114 218.557 77.2523 218.579 77.289C218.697 77.5026 218.531 77.1358 218.562 77.2394C218.587 77.3257 218.62 77.4098 218.639 77.4983C218.65 77.5436 218.654 77.5911 218.667 77.6342C218.702 77.7615 218.648 77.4724 218.648 77.481C218.648 77.5156 218.656 77.5544 218.659 77.5889C218.676 77.809 218.661 78.0226 218.644 78.2426C218.631 78.3915 218.691 77.9686 218.65 78.1887C218.639 78.2448 218.631 78.3009 218.62 78.357C218.594 78.4886 218.564 78.6181 218.529 78.7475C218.458 79.0107 218.372 79.2696 218.275 79.5242C218.251 79.5868 218.225 79.6515 218.201 79.7141C218.193 79.7335 218.175 79.8004 218.162 79.809C218.167 79.8069 218.264 79.5738 218.199 79.7227C218.134 79.8694 218.07 80.0183 217.998 80.1628C217.411 81.3991 216.667 82.5599 215.882 83.6774C215.67 83.9795 215.452 84.2794 215.232 84.575C215.122 84.7238 215.01 84.8706 214.9 85.0194C214.848 85.0885 214.794 85.1575 214.742 85.2265C214.716 85.2611 214.69 85.2956 214.662 85.3301C214.727 85.2503 214.757 85.2071 214.675 85.3129C214.233 85.8803 213.782 86.4391 213.32 86.9914C212.546 87.9191 211.747 88.8275 210.925 89.7142C210.77 89.8825 210.612 90.0486 210.455 90.2148C210.105 90.5837 210.062 91.2266 210.455 91.5869C210.862 91.9623 211.419 91.9451 211.827 91.5869C213.37 90.2277 214.822 88.767 216.371 87.4121C216.868 86.9785 217.373 86.5491 217.884 86.1327C218.009 86.0313 218.136 85.9299 218.262 85.8285C218.318 85.7853 218.372 85.74 218.428 85.6969C218.486 85.6516 218.756 85.4617 218.516 85.6279C218.773 85.4488 219.017 85.2481 219.271 85.0626C219.755 84.7131 220.251 84.3765 220.765 84.068C221 83.9256 221.242 83.7918 221.485 83.6645C221.589 83.6106 221.695 83.5588 221.803 83.5092C221.857 83.4833 221.913 83.4574 221.969 83.4336C222.208 83.3279 221.833 83.4854 221.96 83.4358C222.165 83.3581 222.368 83.2805 222.582 83.2222C222.679 83.1963 222.776 83.1726 222.873 83.1532C222.916 83.1445 222.974 83.1445 223.013 83.1294C223.022 83.1251 222.728 83.1575 222.858 83.151C222.886 83.151 222.914 83.1445 222.942 83.1424C223.028 83.1359 223.117 83.1316 223.203 83.1338C223.24 83.1338 223.276 83.1381 223.313 83.1402C223.516 83.1467 223.043 83.082 223.235 83.1294C223.307 83.1467 223.378 83.1661 223.449 83.1834C223.63 83.2287 223.332 83.1273 223.35 83.1381C223.386 83.1596 223.427 83.1747 223.464 83.1963C223.496 83.2157 223.527 83.2395 223.561 83.2567C223.673 83.3171 223.348 83.0647 223.479 83.1942C223.537 83.2503 223.591 83.3107 223.647 83.3689C223.721 83.4423 223.496 83.1381 223.589 83.2977C223.611 83.3344 223.635 83.3689 223.654 83.4056C223.673 83.4423 223.691 83.4811 223.712 83.5178C223.775 83.6257 223.615 83.2373 223.68 83.4488C223.704 83.5264 223.727 83.6041 223.745 83.6839C223.753 83.7271 223.755 83.7767 223.768 83.8155C223.669 83.5329 223.747 83.63 223.755 83.7637C223.768 83.9644 223.755 84.1607 223.736 84.3614C223.723 84.5124 223.783 84.0787 223.742 84.3031C223.732 84.3571 223.723 84.411 223.712 84.4671C223.691 84.5793 223.663 84.6915 223.635 84.8037C223.57 85.0518 223.49 85.2934 223.399 85.5329C223.386 85.5653 223.283 85.8803 223.261 85.8781C223.259 85.8781 223.358 85.6581 223.3 85.7875C223.285 85.8177 223.272 85.8501 223.259 85.8824C223.225 85.9623 223.188 86.0421 223.149 86.1198C223.024 86.383 222.892 86.644 222.752 86.9008C222.126 88.0529 221.382 89.1403 220.59 90.1824C220.536 90.2536 220.437 90.4564 220.551 90.2342C220.514 90.3032 220.445 90.3701 220.398 90.4327C220.294 90.5643 220.191 90.6937 220.087 90.8232C219.873 91.0864 219.656 91.3496 219.435 91.6063C219.021 92.0918 218.594 92.5665 218.154 93.0303C217.763 93.4424 217.362 93.8437 216.945 94.2299C216.768 94.3939 216.587 94.5578 216.404 94.7153C216.32 94.7865 216.235 94.8577 216.149 94.9268C216.108 94.9591 216.067 94.9915 216.026 95.0239C216.011 95.0368 215.996 95.0476 215.981 95.0584C215.856 95.1598 216.188 94.9052 216.061 94.998C215.918 95.1015 215.778 95.2051 215.631 95.3C216.024 95.8092 216.417 96.3162 216.807 96.8254C217.545 96.1889 218.3 95.5697 219.064 94.9635C219.192 94.8621 219.321 94.7607 219.451 94.6614C219.53 94.5988 219.608 94.5341 219.69 94.4759C219.418 94.6679 219.718 94.4543 219.781 94.4068C220.096 94.1652 220.413 93.9278 220.732 93.6927C221.399 93.2029 222.077 92.7261 222.769 92.273C223.438 91.835 224.12 91.4165 224.826 91.0411C225.154 90.8663 225.486 90.7002 225.825 90.5513C225.861 90.5362 225.896 90.5211 225.933 90.5039C226.101 90.4305 225.702 90.5966 225.87 90.5297C225.939 90.5017 226.008 90.4736 226.079 90.4456C226.233 90.3873 226.386 90.3313 226.543 90.2816C226.675 90.2406 226.811 90.2018 226.945 90.1694C227.012 90.1543 227.078 90.1392 227.145 90.1263C227.264 90.1026 227.514 90.1198 227.152 90.1177C227.262 90.1177 227.372 90.0961 227.482 90.0939C227.545 90.0939 227.605 90.0961 227.668 90.0982C227.914 90.1069 227.426 90.0443 227.614 90.0875C227.704 90.109 227.791 90.1349 227.881 90.1608C228.013 90.1975 227.635 90.0292 227.747 90.1047C227.769 90.1198 227.795 90.1263 227.819 90.1414C227.857 90.1673 227.907 90.2104 227.95 90.2255C227.709 90.1306 227.782 90.0745 227.873 90.1759C227.907 90.2147 228.034 90.3679 227.903 90.1996C227.771 90.0292 227.896 90.1996 227.924 90.2471C227.957 90.3032 227.978 90.3852 228.019 90.4327C227.879 90.2665 227.939 90.2126 227.974 90.3291C227.98 90.3507 227.989 90.3722 227.996 90.396C228.015 90.4586 228.032 90.5211 228.045 90.5837C228.069 90.6959 228.049 90.903 228.049 90.5556C228.049 90.629 228.062 90.7045 228.065 90.7779C228.069 90.9203 228.058 91.0627 228.047 91.2051C228.028 91.4359 228.095 90.9548 228.047 91.1899C228.03 91.2741 228.017 91.3561 227.998 91.4402C227.922 91.7725 227.806 92.0875 227.685 92.4068C227.618 92.5837 227.784 92.1824 227.706 92.3572C227.689 92.396 227.672 92.4348 227.655 92.4715C227.616 92.5578 227.577 92.642 227.536 92.7283C227.45 92.9052 227.361 93.0778 227.266 93.2504C226.85 94.012 226.364 94.7369 225.851 95.436C225.721 95.6107 225.592 95.7833 225.46 95.9559C225.326 96.1328 225.596 95.7833 225.46 95.9559C225.434 95.9883 225.408 96.0228 225.382 96.0552C225.292 96.1695 225.201 96.286 225.108 96.4004C224.819 96.7585 224.524 97.1124 224.221 97.4619C222.249 99.7488 220.102 101.958 217.731 103.833C217.616 103.924 217.921 103.688 217.739 103.824C217.685 103.865 217.629 103.906 217.575 103.95C217.483 104.019 217.39 104.088 217.297 104.157C217.066 104.327 216.831 104.493 216.596 104.657C216.14 104.972 215.677 105.276 215.204 105.566C214.201 106.183 213.158 106.737 212.079 107.212C212.017 107.24 211.954 107.266 211.89 107.294C211.741 107.358 212.103 107.207 211.855 107.309C211.715 107.365 211.575 107.423 211.432 107.477C211.136 107.591 210.837 107.701 210.537 107.801C209.958 107.995 209.371 108.161 208.778 108.295C208.48 108.362 208.182 108.42 207.882 108.47C207.829 108.478 207.772 108.487 207.718 108.495C207.684 108.5 207.408 108.539 207.647 108.506C207.483 108.528 207.317 108.545 207.153 108.562C206.547 108.618 205.938 108.636 205.33 108.608C205.023 108.593 204.719 108.567 204.417 108.528C204.626 108.554 204.436 108.528 204.385 108.521C204.316 108.511 204.247 108.5 204.177 108.487C204.011 108.459 203.845 108.424 203.681 108.39C203.185 108.284 202.609 108.536 202.486 109.067C202.374 109.557 202.632 110.148 203.163 110.262C208.282 111.363 213.493 109.177 217.634 106.29C220.346 104.4 222.713 102.053 224.918 99.6C226.211 98.1588 227.463 96.6485 228.488 95.0023C228.951 94.2579 229.361 93.4748 229.661 92.6484C229.899 91.9969 230.061 91.2698 229.994 90.5729C229.918 89.7832 229.614 89.0389 228.951 88.5642C228.47 88.219 227.836 88.109 227.255 88.1629C225.745 88.3032 224.327 89.0562 223.041 89.8156C220.452 91.341 218.057 93.2267 215.767 95.1684C215.657 95.2612 215.547 95.3561 215.437 95.4511C215.07 95.7661 215.085 96.3702 215.361 96.7262C215.644 97.0929 216.205 97.2396 216.615 96.9764C217.474 96.4241 218.238 95.7057 218.959 94.9872C219.889 94.0595 220.76 93.0735 221.58 92.0486C222.489 90.9116 223.354 89.7336 224.094 88.4779C224.705 87.4445 225.279 86.3247 225.553 85.1489C225.807 84.0615 225.779 82.918 225.044 82.0205C224.375 81.2049 223.289 81.0906 222.318 81.2912C221.242 81.5135 220.223 82.1003 219.308 82.6893C218.154 83.4337 217.068 84.288 216.015 85.1683C214.22 86.6678 212.543 88.2967 210.824 89.8803C210.701 89.9925 210.578 90.1047 210.452 90.2148L211.825 91.5869C213.678 89.6344 215.428 87.5675 217.023 85.3992C217.886 84.2255 218.706 83.0129 219.384 81.7227C219.977 80.5922 220.504 79.3753 220.599 78.0873C220.681 76.9611 220.23 75.8758 219.261 75.2609C218.376 74.6978 217.25 74.7777 216.311 75.1531C215.115 75.632 214.084 76.4109 213.117 77.248C212.023 78.193 211.018 79.2416 210.047 80.3117C208.228 82.3204 206.568 84.4585 204.808 86.5168C204.661 86.6872 204.514 86.8576 204.363 87.0259C204.024 87.4056 203.962 88.0313 204.363 88.3981C204.732 88.7368 205.375 88.8037 205.735 88.3981L205.731 88.396Z" fill="#1E1E1B"/>
<path d="M194.488 99.1687C194.432 99.1967 194.374 99.2226 194.316 99.2485C194.285 99.2614 194.255 99.2744 194.225 99.2873C194.044 99.3693 194.38 99.2248 194.318 99.2485C194.184 99.3003 194.05 99.3564 193.914 99.4081C193.597 99.5268 193.278 99.6368 192.954 99.7382C192.154 99.9907 191.342 100.202 190.527 100.394C188.373 100.903 186.187 101.281 183.997 101.602C183.691 101.648 183.384 101.691 183.08 101.734C182.925 101.756 182.767 101.777 182.612 101.799C182.916 101.758 182.648 101.794 182.575 101.803C182.476 101.816 182.376 101.829 182.277 101.842C181.604 101.928 180.931 102.01 180.257 102.088C178.829 102.25 177.396 102.392 175.963 102.513C172.858 102.774 169.745 102.942 166.629 103.018C163.347 103.098 160.06 103.076 156.778 102.931C155.145 102.858 153.516 102.754 151.886 102.616C151.084 102.547 150.281 102.47 149.478 102.381C149.081 102.338 148.684 102.293 148.287 102.243C148.095 102.219 147.905 102.196 147.713 102.172C147.618 102.159 147.523 102.148 147.428 102.135C147.381 102.129 147.333 102.122 147.286 102.116C147.556 102.15 147.305 102.118 147.26 102.112C144.263 101.699 141.283 101.147 138.363 100.347C137.023 99.9799 135.696 99.5592 134.397 99.0694C134.087 98.9529 133.776 98.8321 133.469 98.7048C133.396 98.6746 133.323 98.6444 133.249 98.6142C133.213 98.5991 133.176 98.584 133.139 98.5689C133.021 98.5214 133.323 98.6487 133.206 98.5969C133.053 98.53 132.9 98.4653 132.747 98.3963C132.168 98.1395 131.599 97.8655 131.038 97.5742C129.974 97.0198 128.947 96.3941 127.984 95.6778C127.928 95.6368 127.874 95.5936 127.818 95.5526C127.652 95.4297 127.958 95.6648 127.831 95.5634C127.71 95.4685 127.589 95.3736 127.471 95.2765C127.257 95.0996 127.046 94.9183 126.841 94.7328C126.439 94.3682 126.057 93.9863 125.699 93.5807C125.522 93.3822 125.356 93.1772 125.19 92.9722C125.039 92.7867 125.287 93.106 125.196 92.9809C125.16 92.9291 125.121 92.8795 125.082 92.8277C125.002 92.7198 124.924 92.6098 124.849 92.4997C124.555 92.0726 124.288 91.6281 124.053 91.1664C123.934 90.9355 123.83 90.7004 123.723 90.4652C123.669 90.3487 123.813 90.6939 123.729 90.4803C123.705 90.422 123.682 90.3638 123.66 90.3055C123.608 90.1739 123.561 90.0402 123.513 89.9064C123.343 89.408 123.205 88.8988 123.103 88.381C123.077 88.2537 123.056 88.1243 123.034 87.997C123.026 87.9409 123.017 87.8826 123.008 87.8266C123.004 87.7942 123 87.7618 122.995 87.7295C122.976 87.6086 123.021 87.9625 123.01 87.8395C122.989 87.5655 122.95 87.2915 122.933 87.0153C122.9 86.491 122.51 86.0444 121.962 86.0444C121.461 86.0444 120.958 86.4889 120.991 87.0153C121.133 89.3023 121.841 91.5202 123.131 93.421C124.471 95.3908 126.286 96.9701 128.291 98.2388C130.539 99.6606 133.027 100.703 135.547 101.529C138.385 102.461 141.309 103.115 144.252 103.607C147.5 104.15 150.782 104.504 154.066 104.724C157.389 104.947 160.721 105.028 164.05 105.003C167.274 104.979 170.495 104.852 173.711 104.627C176.615 104.427 179.515 104.146 182.4 103.768C184.832 103.451 187.262 103.078 189.663 102.575C191.295 102.234 192.941 101.853 194.501 101.257C194.829 101.132 195.155 100.996 195.472 100.845C195.947 100.621 196.07 99.941 195.82 99.516C195.535 99.0306 194.967 98.9421 194.49 99.1687H194.488Z" fill="#1E1E1B"/>
<path d="M202.924 108.489C202.166 108.929 201.383 109.324 200.591 109.695C200.116 109.917 199.635 110.133 199.154 110.34C199.076 110.374 198.731 110.519 198.863 110.465C199.022 110.398 198.806 110.489 198.772 110.504C198.692 110.536 198.614 110.571 198.535 110.603C198.254 110.72 197.971 110.834 197.691 110.946C195.037 112.001 192.324 112.912 189.59 113.729C186.259 114.726 182.884 115.581 179.483 116.308C177.608 116.709 175.724 117.069 173.832 117.391C172.863 117.555 171.892 117.71 170.921 117.852C169.851 118.01 169.167 118.103 168.109 118.232C163.992 118.737 159.849 119.041 155.704 119.099C151.494 119.16 147.276 118.966 143.096 118.441C142.552 118.372 142.308 118.34 141.732 118.256C141.21 118.178 140.688 118.096 140.168 118.01C139.147 117.837 138.129 117.643 137.117 117.427C135.09 116.994 133.084 116.467 131.111 115.835C127.206 114.586 123.634 113.013 120.098 110.832C116.596 108.674 113.536 106.137 110.763 103.015C107.861 99.7486 105.472 95.9298 103.651 91.8564C103.187 90.8186 102.768 89.7701 102.367 88.6719C102.188 88.18 101.707 87.8477 101.172 87.9944C100.697 88.1239 100.313 88.6935 100.494 89.1897C102.108 93.6148 104.277 97.837 107.116 101.604C109.74 105.082 112.852 108.128 116.382 110.683C119.766 113.132 123.492 115.065 127.38 116.575C131.29 118.092 135.369 119.153 139.501 119.859C143.735 120.582 148.024 120.953 152.318 121.035C156.53 121.117 160.747 120.927 164.939 120.523C169.003 120.131 173.049 119.544 177.058 118.778C180.657 118.092 184.23 117.261 187.761 116.282C190.706 115.464 193.623 114.547 196.489 113.483C198.658 112.679 200.815 111.807 202.87 110.741C203.221 110.56 203.569 110.37 203.91 110.172C204.989 109.544 204.013 107.865 202.93 108.495L202.924 108.489Z" fill="#1E1E1B"/>
<path d="M58.7076 37.2822C61.597 37.4634 64.3719 36.5292 66.7714 34.9628C69.0652 33.4655 71.0309 31.5388 73.0075 29.6596C74.477 28.2615 75.9724 26.7534 76.7578 24.8483C77.1462 23.9098 77.2822 22.8073 76.8916 21.8472C76.4471 20.749 75.4415 19.7156 74.2396 19.4977C72.9104 19.256 71.538 19.6056 70.3102 20.1147C69.0285 20.6476 67.7554 21.3553 66.793 22.3737C66.4434 22.7426 66.4003 23.3855 66.793 23.7458C67.1728 24.0932 67.7942 24.1407 68.1654 23.7458C68.3315 23.5711 68.5085 23.4071 68.694 23.2518C68.7264 23.2237 68.7609 23.1978 68.7933 23.1698C68.9681 23.0231 68.6185 23.2971 68.8062 23.1612C68.9357 23.0684 69.0652 22.9735 69.1968 22.885C69.6586 22.5765 70.1484 22.3046 70.6512 22.0695C70.7181 22.0371 70.785 22.0069 70.854 21.9767C70.8928 21.9594 71.128 21.8666 70.895 21.9573C71.0094 21.912 71.1237 21.8666 71.2381 21.8235C71.5078 21.7221 71.7819 21.6336 72.0602 21.5581C72.3149 21.4891 72.5695 21.4373 72.8284 21.3898C73.0248 21.3553 72.8219 21.4265 72.796 21.392C72.8025 21.4028 72.9687 21.3726 72.9859 21.3726C73.1283 21.3596 73.2708 21.3532 73.4153 21.3553C73.5124 21.3553 73.6095 21.3596 73.7045 21.3683C73.8124 21.3769 73.8987 21.4438 73.6678 21.3618C73.7153 21.379 73.7757 21.3812 73.8275 21.392C73.9116 21.4114 73.9936 21.4373 74.0778 21.4632C74.2828 21.5236 74.026 21.4869 74.0325 21.4395C74.0325 21.4438 74.19 21.5214 74.2051 21.5322C74.2547 21.5624 74.3 21.5948 74.3475 21.6272C74.5439 21.7588 74.2504 21.5279 74.3518 21.6272C74.4403 21.7135 74.5417 21.789 74.6302 21.8753C74.6626 21.9076 74.8525 22.1579 74.8848 22.1558C74.8309 22.1601 74.7618 21.9745 74.8589 22.1277C74.8956 22.1838 74.9344 22.2399 74.969 22.2982C74.997 22.3456 75.0251 22.3952 75.051 22.447C75.0963 22.5376 75.092 22.6498 75.0445 22.4147C75.0618 22.4988 75.1071 22.5851 75.1308 22.6692C75.1394 22.6995 75.2171 22.967 75.1955 22.9799C75.1848 22.9864 75.1783 22.7038 75.1826 22.9303C75.1826 22.9929 75.1891 23.0533 75.1891 23.1159C75.1891 23.2129 75.1761 23.31 75.174 23.4093C75.1675 23.6099 75.2193 23.1676 75.1804 23.3661C75.1696 23.4201 75.161 23.474 75.1502 23.5279C75.1028 23.748 75.0359 23.9638 74.956 24.1752C74.8589 24.4298 75.0315 24.0177 74.9172 24.2658C74.8676 24.3737 74.8136 24.4816 74.7575 24.5873C74.6431 24.8052 74.518 25.0166 74.382 25.2216C74.2569 25.4136 74.1231 25.6035 73.9872 25.7869C73.9267 25.8689 73.9116 25.9832 73.9872 25.7912C73.9677 25.8408 73.903 25.8991 73.8706 25.9401C73.793 26.0371 73.7131 26.1342 73.6311 26.2313C73.0615 26.9045 72.4378 27.5301 71.8013 28.1386C70.9684 28.9325 70.1398 29.733 69.2896 30.5075C68.8041 30.9498 68.3121 31.3835 67.805 31.802C67.5676 31.9984 67.326 32.1926 67.0821 32.3824C67.2548 32.2487 67.0347 32.4191 67.0131 32.4342C66.9462 32.4838 66.8793 32.5334 66.8124 32.5831C66.6786 32.6823 66.5448 32.7794 66.4089 32.8743C65.8306 33.2821 65.2329 33.6618 64.6114 33.9984C64.305 34.1645 63.9921 34.3199 63.6749 34.4623C63.6016 34.4946 63.5282 34.527 63.4548 34.5594C63.6749 34.4644 63.3556 34.5982 63.3167 34.6133C63.1678 34.6715 63.0168 34.7276 62.8658 34.7794C62.2011 35.0103 61.5214 35.1721 60.8266 35.2843C60.5547 35.3274 61.0338 35.2649 60.7576 35.2929C60.6475 35.3037 60.5375 35.3167 60.4274 35.3274C60.2591 35.3425 60.0908 35.3533 59.9246 35.3598C59.5211 35.3771 59.1155 35.3684 58.7119 35.3447C58.2049 35.3123 57.7193 35.815 57.7409 36.3156C57.7647 36.8679 58.1682 37.252 58.7119 37.2865L58.7076 37.2822Z" fill="#1E1E1B"/>
<path d="M68.3161 23.5517C69.641 21.3532 71.1407 19.2647 72.4829 17.077C73.2532 15.8235 73.9934 14.5484 74.6385 13.2236C75.2082 12.0586 75.7541 10.831 76.0109 9.5537C76.2181 8.52672 76.2871 7.33145 75.6851 6.41018C75.0248 5.3983 73.8812 4.97759 72.7138 5.18255C71.568 5.3832 70.5473 6.15991 69.695 6.90641C68.6333 7.83631 67.7076 8.92154 66.8423 10.0327C65.0967 12.2679 63.5452 14.6498 62.1297 17.1072C62.0153 17.3057 61.9031 17.5042 61.7909 17.7048C62.3498 18.0306 62.9086 18.3586 63.4675 18.6843C64.3501 16.7145 65.3664 14.8094 66.2338 12.831C66.8057 11.5278 67.3494 10.2074 67.7896 8.8525C68.1543 7.72843 68.4629 6.55474 68.5168 5.3681C68.56 4.4231 68.3787 3.3314 67.6213 2.68198C66.8078 1.98294 65.6814 1.92469 64.7104 2.3152C63.5797 2.77044 62.626 3.56009 61.7693 4.41447C60.7745 5.40693 59.8963 6.5159 59.0742 7.65292C57.6241 9.66157 56.2474 11.8536 55.3865 14.1881C55.3217 14.365 55.2613 14.5419 55.2117 14.7231C55.0822 15.1913 55.3347 15.6832 55.7749 15.8688C56.1762 16.0392 56.7934 15.9141 56.9876 15.4718C58.0967 12.9259 59.1087 10.3175 59.8488 7.63997C60.2631 6.14265 60.6645 4.53098 60.5954 2.96462C60.5674 2.32599 60.4617 1.63127 60.1121 1.0811C59.6956 0.425212 59.0591 0.0907953 58.2974 0.0174395C56.7545 -0.133587 55.339 1.00774 54.3227 2.02825C52.9762 3.38102 51.8692 4.98406 50.855 6.59357C49.9466 8.03696 49.1137 9.52565 48.3304 11.0402C47.6248 12.4016 46.9753 13.7846 46.4466 15.2258C45.6288 17.4502 45.0678 19.7653 44.8218 22.1213C44.5607 24.6305 44.7139 27.267 45.6072 29.6446C45.8467 30.2853 46.1294 30.911 46.466 31.5065C46.7142 31.9488 47.3594 32.1365 47.7953 31.8539C48.2441 31.5648 48.4102 30.9995 48.1427 30.5248C47.9959 30.2616 47.8557 29.9941 47.7284 29.7222C47.6938 29.6489 47.6615 29.5734 47.6269 29.5C47.5514 29.3317 47.614 29.4741 47.6269 29.5065C47.5536 29.3317 47.4867 29.1548 47.4219 28.9757C47.2213 28.4169 47.0616 27.843 46.9386 27.2627C46.8803 26.9843 46.8307 26.706 46.7897 26.4255C46.7811 26.3716 46.7573 26.1861 46.7854 26.4018C46.7746 26.322 46.766 26.24 46.7552 26.1602C46.7379 25.9983 46.7207 25.8387 46.7077 25.6769C46.6581 25.0836 46.6408 24.4881 46.6516 23.8948C46.6624 23.2756 46.7034 22.6563 46.7703 22.0414C46.7854 21.9077 46.8005 21.7761 46.8178 21.6423C46.8221 21.6035 46.8609 21.3359 46.8242 21.5841C46.8329 21.5323 46.8393 21.4783 46.8458 21.4266C46.8911 21.1137 46.9429 20.8009 47.0012 20.488C47.204 19.3942 47.4759 18.3132 47.8039 17.2517C47.9614 16.7447 48.1319 16.2399 48.3153 15.7415C48.3908 15.5387 48.4663 15.3359 48.5462 15.1352C48.5915 15.0187 48.639 14.9022 48.6843 14.7879C48.7145 14.7102 48.8785 14.3499 48.749 14.6304C49.0252 14.037 49.2863 13.4394 49.5798 12.8526C50.2357 11.5451 50.9284 10.257 51.6664 8.9949C52.1368 8.19014 52.6266 7.39833 53.1445 6.62378C53.3991 6.2419 53.6602 5.86433 53.9321 5.49324C54.0572 5.32279 54.245 5.1394 54.3356 4.9517C54.2558 5.11783 54.245 5.06605 54.2946 5.00348C54.3313 4.95601 54.368 4.90855 54.4068 4.86108C54.4802 4.76831 54.5557 4.67553 54.6312 4.58276C55.1534 3.94629 55.7101 3.3314 56.3381 2.79849C56.4006 2.74455 56.4654 2.69493 56.528 2.64099C56.7222 2.48133 56.364 2.7575 56.5582 2.61726C56.707 2.51154 56.8538 2.40798 57.0091 2.31305C57.1429 2.23322 57.2789 2.1577 57.4191 2.09298C57.4429 2.08219 57.4688 2.0714 57.4925 2.05846C57.6435 1.9851 57.2508 2.14907 57.4083 2.09514C57.4817 2.06925 57.5529 2.0412 57.6284 2.01746C57.6997 1.99589 57.773 1.97647 57.8464 1.95921C57.9586 1.93548 58.1398 1.95921 57.8032 1.95705C57.937 1.95705 58.0708 1.94195 58.2067 1.94411C58.4527 1.95058 57.9607 1.8837 58.1722 1.93764C58.224 1.95058 58.2779 1.95921 58.3297 1.97431C58.5132 2.02825 58.3556 1.99805 58.2628 1.93979C58.3082 1.97 58.3643 1.99805 58.4139 2.02394C58.5736 2.10592 58.2154 1.83623 58.3427 1.96784C58.3729 1.99805 58.4053 2.03041 58.4376 2.06062C58.6038 2.21596 58.3082 1.85349 58.4031 2.01099C58.4312 2.05846 58.4635 2.10377 58.4894 2.15339C58.511 2.19438 58.5283 2.244 58.552 2.28284C58.3772 1.99805 58.4916 2.13181 58.5283 2.25048C58.5649 2.36483 58.593 2.48133 58.6167 2.6C58.6361 2.7014 58.6405 2.96246 58.6189 2.58489C58.6232 2.6453 58.6318 2.70787 58.6383 2.76828C58.6512 2.91931 58.6556 3.07034 58.6556 3.21921C58.6556 3.54931 58.6318 3.87725 58.5951 4.20519C58.5865 4.28286 58.5693 4.36269 58.5671 4.44036C58.58 4.09732 58.5757 4.3778 58.5606 4.47057C58.5304 4.66906 58.4959 4.86755 58.4592 5.06605C58.3858 5.44793 58.3017 5.82981 58.2089 6.20738C57.8183 7.81042 57.2961 9.38109 56.7265 10.928C56.4805 11.599 56.2215 12.2679 55.954 12.9302C55.8504 13.1891 55.7447 13.448 55.6368 13.7069C55.5915 13.8148 55.5461 13.9227 55.5008 14.0306C55.544 13.927 55.6044 13.7846 55.5332 13.955C55.5138 14.0025 55.4922 14.05 55.4728 14.0974C55.4167 14.2269 55.3627 14.3563 55.3066 14.4836C55.8979 14.7339 56.4891 14.982 57.0804 15.2323C57.13 15.0575 57.1861 14.8849 57.2487 14.7145C57.281 14.626 57.3156 14.5376 57.3501 14.4491C57.3695 14.3995 57.3911 14.3499 57.4105 14.3003C57.4968 14.0888 57.3242 14.5009 57.4019 14.3197C57.6112 13.8429 57.8377 13.3768 58.0773 12.9151C58.6642 11.791 59.3245 10.7037 60.0301 9.65079C60.4077 9.08767 60.8004 8.53535 61.2104 7.99596C61.2363 7.9636 61.2601 7.92908 61.2859 7.89672C61.3507 7.81257 61.2967 7.81042 61.3054 7.87299C61.314 7.9334 61.2579 7.9334 61.3248 7.84925C61.3507 7.81689 61.3766 7.78453 61.4003 7.75216C61.5082 7.61624 61.6161 7.48032 61.7261 7.34655C61.929 7.09843 62.1361 6.85463 62.3498 6.61515C62.7533 6.15991 63.1762 5.72193 63.625 5.312C63.7264 5.21923 63.8322 5.12646 63.9379 5.038C63.9962 4.98838 64.2529 4.83951 64.2659 4.77047C64.2659 4.77478 64.0631 4.92149 64.1839 4.83303C64.2098 4.81362 64.2357 4.7942 64.2616 4.77694C64.3047 4.74458 64.3501 4.71221 64.3954 4.67985C64.5011 4.60649 64.6068 4.53314 64.7169 4.46625C64.9068 4.34759 65.1053 4.24187 65.306 4.14478C65.5045 4.04985 65.1139 4.21598 65.2542 4.16636C65.3017 4.1491 65.3491 4.12968 65.3966 4.11458C65.4937 4.08006 65.593 4.05201 65.6922 4.02828C65.7375 4.01749 65.7828 4.01102 65.8282 4.00023C66.0073 3.95708 65.5563 4.01965 65.7375 4.01102C65.8303 4.0067 65.9209 3.99807 66.0159 4.00239C66.0569 4.00239 66.1022 4.01533 66.1432 4.01317C66.0849 4.01533 65.8541 3.95708 66.0245 4.00023C66.1065 4.01965 66.1993 4.06495 66.2813 4.07574C66.0461 4.04769 66.0785 3.9765 66.1928 4.04122C66.2274 4.06064 66.2619 4.0779 66.2964 4.09948C66.3266 4.11889 66.359 4.1491 66.3914 4.1642C66.3201 4.13184 66.1842 3.97865 66.305 4.10379C66.3309 4.13184 66.359 4.15773 66.3849 4.18578C66.3978 4.19872 66.4086 4.21598 66.4216 4.22893C66.5014 4.30444 66.3201 4.09516 66.3223 4.09948C66.3504 4.17067 66.4151 4.24403 66.4518 4.31307C66.4733 4.35191 66.5424 4.51372 66.4604 4.3217C66.3806 4.13615 66.4431 4.27855 66.4561 4.3217C66.4863 4.41663 66.5143 4.5094 66.5338 4.60649C66.5424 4.64533 66.5467 4.68632 66.5553 4.72516C66.5963 4.90855 66.5295 4.45115 66.5446 4.64317C66.5532 4.74889 66.564 4.85461 66.5661 4.96033C66.5726 5.17824 66.5661 5.3983 66.5446 5.61621C66.5402 5.67447 66.5338 5.73272 66.5273 5.79097C66.5251 5.82118 66.5208 5.84923 66.5165 5.87943C66.5014 6.03046 66.5338 5.7543 66.5338 5.75645C66.51 5.88806 66.4949 6.01967 66.4712 6.15128C66.3719 6.70576 66.2317 7.25162 66.0698 7.791C65.8907 8.39079 65.6879 8.98411 65.4678 9.57096C65.3513 9.88164 65.2304 10.1923 65.1075 10.5008C65.0513 10.6432 64.9931 10.7835 64.9348 10.9237C64.9046 10.9992 64.8722 11.0748 64.842 11.1503C64.7579 11.3552 64.9154 10.9755 64.8097 11.2279C63.9379 13.2776 62.9259 15.2603 61.9721 17.2733C61.9052 17.4136 61.8405 17.5538 61.7758 17.6962C61.5686 18.1579 61.6269 18.762 62.1232 19.0252C62.5806 19.2669 63.187 19.1504 63.4524 18.6779C64.691 16.4664 66.0526 14.3132 67.5479 12.2679C67.6515 12.1276 67.7551 11.9874 67.8587 11.8471C67.9105 11.7781 67.9622 11.7091 68.0162 11.64C68.0593 11.5839 68.2643 11.3034 68.1003 11.5278C68.314 11.2344 68.5492 10.9539 68.7801 10.6756C69.2138 10.1492 69.6648 9.63568 70.1416 9.14592C70.5754 8.69932 71.0328 8.28939 71.5119 7.89456C71.6025 7.81905 71.3392 8.02401 71.4342 7.95497C71.4601 7.93555 71.486 7.91614 71.514 7.89456C71.5658 7.85573 71.6176 7.81689 71.6715 7.78021C71.7859 7.69823 71.9024 7.62056 72.0211 7.54504C72.2304 7.41559 72.4462 7.3034 72.6663 7.19768C72.8476 7.11138 72.4311 7.28182 72.6188 7.21926C72.6685 7.202 72.7159 7.18258 72.7656 7.16532C72.8713 7.12864 72.9792 7.09843 73.0892 7.0747C73.1367 7.06391 73.1842 7.0596 73.2295 7.04881C73.264 7.04018 72.9339 7.07254 73.1453 7.06176C73.2424 7.05744 73.3374 7.05744 73.4345 7.05744C73.6265 7.0596 73.4021 7.05313 73.3568 7.04234C73.4 7.05313 73.4431 7.05744 73.4863 7.06823C73.5294 7.07902 73.5704 7.0898 73.6136 7.10275C73.6352 7.10922 73.6546 7.11785 73.6762 7.12432C73.8164 7.16316 73.5661 7.08117 73.5532 7.07039C73.6287 7.12432 73.7279 7.15669 73.8078 7.20847C73.8445 7.2322 73.9912 7.34439 73.8315 7.21926C73.6718 7.09412 73.8229 7.21494 73.8574 7.2473C73.9243 7.30771 73.9804 7.37891 74.0408 7.44364C73.8272 7.2171 73.9826 7.36597 74.0559 7.49542C74.0754 7.5321 74.0905 7.57309 74.1142 7.60761C74.1703 7.69607 74.0214 7.34223 74.0797 7.52347C74.1099 7.6184 74.1422 7.71117 74.166 7.80826C74.1768 7.85357 74.1832 7.89888 74.194 7.94203C74.2393 8.14483 74.1725 7.71117 74.1832 7.85788C74.1919 7.96792 74.2027 8.07579 74.2027 8.18798C74.2027 8.29154 74.2027 8.39511 74.194 8.49867C74.1876 8.61517 74.1056 9.01863 74.1876 8.64969C74.0732 9.17181 73.9761 9.68099 73.8056 10.1902C73.7107 10.475 73.6049 10.7554 73.4927 11.0338C73.4647 11.1028 73.4345 11.1697 73.4086 11.2387C73.4129 11.2258 73.5057 11.0143 73.441 11.1611C73.4259 11.1956 73.4107 11.2301 73.3956 11.2646C73.3266 11.4221 73.2575 11.5796 73.1842 11.7371C72.5972 13.0079 71.9089 14.2334 71.1882 15.433C69.8503 17.6638 68.3636 19.7976 66.974 21.994C66.8531 22.1838 66.7344 22.3759 66.6179 22.5679C66.3547 23.0037 66.5079 23.6531 66.9653 23.8969C67.4357 24.145 68.014 24.0134 68.2946 23.5496L68.3161 23.5517Z" fill="#1E1E1B"/>
<path d="M57.7706 36.0544C57.5505 37.5905 57.6044 39.1461 57.7102 40.6909C57.8677 42.9951 58.1676 45.2886 58.5236 47.5691C58.9531 50.3307 59.4839 53.0772 60.0859 55.8087C60.7656 58.8896 61.536 61.9511 62.3991 64.9868C63.3075 68.1821 64.3152 71.3493 65.4459 74.4734C66.581 77.6148 67.839 80.7173 69.2588 83.7443C70.5535 86.5059 71.9906 89.2071 73.6478 91.7703C75.1432 94.0831 76.822 96.3097 78.7834 98.2493C80.4665 99.9128 82.3978 101.41 84.5793 102.362C86.6595 103.27 88.923 103.719 91.1931 103.46C91.7951 103.391 92.3928 103.294 92.9819 103.151C93.4911 103.028 93.7954 102.452 93.6594 101.956C93.517 101.436 92.9754 101.153 92.464 101.278C92.1943 101.343 91.9224 101.401 91.6505 101.449C91.5167 101.473 91.3808 101.492 91.247 101.514C91.096 101.537 91.5124 101.481 91.2815 101.509C91.2082 101.518 91.1326 101.527 91.0593 101.535C90.5328 101.589 90.0041 101.606 89.4754 101.587C89.2143 101.578 88.9554 101.559 88.6965 101.531C88.6382 101.524 88.5821 101.518 88.5238 101.512C88.4872 101.507 88.4526 101.503 88.4159 101.499C88.2994 101.486 88.6619 101.535 88.5454 101.516C88.4116 101.492 88.2757 101.475 88.1397 101.451C87.6262 101.36 87.1213 101.233 86.625 101.078C86.3746 100.998 86.1265 100.912 85.8805 100.817C85.764 100.771 85.6475 100.724 85.5309 100.677C85.423 100.633 85.7446 100.769 85.641 100.722C85.6065 100.707 85.5719 100.692 85.5396 100.679C85.4705 100.648 85.4036 100.618 85.3367 100.588C84.8426 100.362 84.3614 100.107 83.8932 99.8286C83.4098 99.5395 82.9394 99.2267 82.4841 98.8944C82.3805 98.8189 82.2791 98.7412 82.1755 98.6636C81.9684 98.5082 82.3244 98.7822 82.1604 98.6528C82.0978 98.6032 82.0331 98.5514 81.9705 98.5018C81.7396 98.3162 81.5131 98.1264 81.2887 97.9322C80.3479 97.1123 79.4761 96.2191 78.6561 95.2784C78.2267 94.7865 77.8167 94.2795 77.4132 93.7681C77.2902 93.6128 77.5254 93.9149 77.4456 93.8091C77.4175 93.7725 77.3873 93.7336 77.3593 93.697C77.314 93.6365 77.2686 93.5761 77.2233 93.5157C77.1198 93.3798 77.0183 93.2417 76.9169 93.1058C76.7119 92.8275 76.5091 92.5448 76.3106 92.2622C74.6102 89.8328 73.1407 87.246 71.818 84.5944C71.1102 83.1747 70.4435 81.7356 69.8112 80.2815C69.7357 80.1067 69.6602 79.9319 69.5846 79.7572C69.5458 79.6644 69.5048 79.5716 69.466 79.4789C69.4465 79.4314 69.3948 79.3084 69.4854 79.5242C69.4595 79.4616 69.4336 79.399 69.4077 79.3365C69.2502 78.9611 69.0948 78.5857 68.9438 78.2102C68.6395 77.4616 68.3461 76.7108 68.0569 75.9578C66.8874 72.8898 65.843 69.7743 64.8979 66.6287C63.9829 63.5758 63.1608 60.4948 62.4336 57.3923C61.7755 54.5897 61.1907 51.7676 60.7031 48.9283C60.4894 47.6942 60.2952 46.4558 60.1248 45.2131C60.114 45.1397 60.1075 45.0664 60.0945 44.993C60.1226 45.1656 60.1183 45.1656 60.0967 45.0081C60.0773 44.8571 60.0579 44.7039 60.0384 44.5529C60.0039 44.2724 59.9694 43.9919 59.937 43.7114C59.8766 43.1893 59.8205 42.665 59.7709 42.1429C59.6155 40.4946 59.4925 38.8225 59.5961 37.1677C59.6047 37.0274 59.6155 36.8872 59.6285 36.7469C59.6349 36.6779 59.6436 36.6089 59.65 36.5398C59.6802 36.2637 59.6177 36.7642 59.6436 36.5808C59.7169 36.063 59.5162 35.5387 58.966 35.3855C58.5107 35.2604 57.8461 35.5409 57.7706 36.063V36.0544Z" fill="#1E1E1B"/>
<path d="M46.371 30.7558C45.9028 32.7839 45.6805 34.8767 45.5165 36.9501C45.29 39.8239 45.2231 42.7107 45.2511 45.591C45.2878 49.1228 45.4756 52.6504 45.7971 56.1671C46.1617 60.1543 46.6969 64.1306 47.4111 68.0702C48.1599 72.1911 49.1115 76.2774 50.3048 80.2947C51.5282 84.4091 53.0107 88.448 54.7952 92.351C56.5409 96.172 58.5951 99.8592 61.0226 103.29C63.4394 106.705 66.2122 109.881 69.3821 112.617C72.5907 115.387 76.1727 117.717 80.0482 119.445C84.2991 121.339 88.796 122.515 93.4137 123.063C94.594 123.204 95.7808 123.299 96.9676 123.357C98.217 123.419 98.2127 121.475 96.9676 121.415C94.4926 121.292 92.3672 121.046 89.9957 120.576C87.8034 120.14 85.6412 119.544 83.5395 118.779C83.0454 118.599 82.5555 118.41 82.0679 118.211C81.9427 118.161 81.8197 118.11 81.6946 118.058C81.5176 117.985 81.6428 118.036 81.6795 118.051C81.6255 118.028 81.5694 118.004 81.5155 117.98C81.2565 117.868 80.9998 117.756 80.743 117.639C79.7827 117.204 78.8398 116.729 77.9162 116.222C76.1145 115.232 74.386 114.105 72.7483 112.865C72.6922 112.822 72.4569 112.64 72.5066 112.681C72.5584 112.72 72.3232 112.537 72.2671 112.494C72.0664 112.334 71.8657 112.174 71.6672 112.013C71.2701 111.689 70.8796 111.357 70.4955 111.02C69.7251 110.347 68.9807 109.646 68.2557 108.923C66.8056 107.473 65.4505 105.93 64.1839 104.317C64.1472 104.271 63.9616 104.03 64.0717 104.174C64.0026 104.084 63.9314 103.993 63.8623 103.902C63.6983 103.687 63.5344 103.469 63.3725 103.251C63.0661 102.837 62.764 102.416 62.4706 101.993C61.8772 101.143 61.3075 100.278 60.7594 99.3996C59.6611 97.6412 58.6491 95.8289 57.7169 93.9756C57.2443 93.0371 56.7912 92.0878 56.3574 91.1298C56.1395 90.6509 55.928 90.1676 55.7187 89.6843C55.6734 89.5764 55.6259 89.4685 55.5806 89.3607C55.4706 89.1018 55.6259 89.4664 55.5591 89.3089C55.5353 89.2549 55.5137 89.201 55.4922 89.1471C55.3843 88.8903 55.2785 88.6314 55.175 88.3747C54.3852 86.4307 53.6666 84.4566 53.0128 82.4631C51.7117 78.4975 50.663 74.45 49.8236 70.3637C49.4136 68.3701 49.0532 66.3658 48.7403 64.355C48.6627 63.8609 48.5893 63.369 48.5181 62.8749C48.4857 62.644 48.4512 62.411 48.4188 62.1802C48.4016 62.0572 48.3843 61.9364 48.3692 61.8134C48.3627 61.7702 48.3433 61.6214 48.3692 61.8263C48.3584 61.7443 48.3476 61.6645 48.3368 61.5825C48.2117 60.6311 48.0951 59.6796 47.9894 58.726C47.5924 55.1359 47.3378 51.5306 47.232 47.9232C47.1435 44.8984 47.1587 41.8671 47.3248 38.8444C47.3917 37.6232 47.4845 36.4042 47.614 35.1874C47.642 34.9155 47.6744 34.6437 47.7067 34.374C47.7218 34.2445 47.7391 34.1129 47.7564 33.9835C47.7779 33.813 47.7693 33.8864 47.7499 34.0288C47.7607 33.9598 47.7693 33.8907 47.7779 33.8195C47.8427 33.3556 47.916 32.8918 47.998 32.4301C48.0671 32.0417 48.1469 31.6534 48.2354 31.2693C48.5159 30.0525 46.6451 29.5347 46.3624 30.7537L46.371 30.7558Z" fill="#1E1E1B"/>
<path d="M136.739 170.688L113.339 158.388C110.072 156.671 106.171 156.671 102.904 158.388L79.5048 170.688C71.2791 175.012 61.666 168.028 63.2369 158.871L67.7058 132.819C68.3294 129.184 67.1232 125.473 64.482 122.897L45.5514 104.448C38.8967 97.9624 42.5693 86.6635 51.766 85.3279L77.9274 81.5264C81.5784 80.9956 84.7353 78.7022 86.3688 75.3947L98.0685 51.6921C102.181 43.3598 114.064 43.3598 118.175 51.6921L129.875 75.3947C131.508 78.7022 134.665 80.9956 138.316 81.5264L164.478 85.3279C173.674 86.6635 177.345 97.9624 170.692 104.448L151.762 122.897C149.118 125.473 147.914 129.182 148.538 132.819L153.007 158.871C154.578 168.028 144.964 175.012 136.739 170.688Z" fill="#1AE17A"/>
<path d="M98.2067 111.958C99.0375 111.958 99.9092 111.598 100.496 111.011C101.083 110.424 101.48 109.529 101.443 108.722C101.407 107.885 101.131 107.018 100.496 106.433C99.8639 105.853 99.085 105.486 98.2067 105.486C97.376 105.486 96.5042 105.846 95.9173 106.433C95.3562 106.994 94.9333 107.915 94.97 108.722C95.0067 109.559 95.2829 110.427 95.9173 111.011C96.5495 111.592 97.3285 111.958 98.2067 111.958Z" fill="#1E1E1B"/>
<path d="M118.039 111.958C118.87 111.958 119.741 111.598 120.328 111.011C120.915 110.424 121.312 109.529 121.276 108.722C121.239 107.885 120.963 107.018 120.328 106.433C119.696 105.853 118.917 105.486 118.039 105.486C117.208 105.486 116.336 105.846 115.749 106.433C115.162 107.02 114.765 107.915 114.802 108.722C114.839 109.559 115.115 110.427 115.749 111.011C116.382 111.592 117.161 111.958 118.039 111.958Z" fill="#1E1E1B"/>
<path d="M98.6141 115.79C99.0133 117.324 99.9951 118.703 101.078 119.833C102.347 121.158 103.903 122.226 105.629 122.856C107.314 123.471 109.174 123.527 110.873 122.931C112.526 122.351 114.008 121.318 115.199 120.04C116.297 118.862 117.366 117.35 117.631 115.725C117.683 115.408 117.659 115.141 117.456 114.88C117.281 114.653 116.992 114.474 116.694 114.498C114.973 114.631 113.233 114.638 111.507 114.675C108.754 114.735 105.998 114.77 103.245 114.722C102.013 114.701 100.776 114.67 99.5484 114.562C99.0414 114.517 98.5558 115.041 98.5774 115.533C98.6033 116.099 99.0047 116.457 99.5484 116.504C101.97 116.72 104.419 116.694 106.848 116.681C109.405 116.668 111.962 116.619 114.519 116.532C115.244 116.509 115.972 116.493 116.694 116.437C116.382 116.027 116.071 115.617 115.758 115.208C115.715 115.473 115.646 115.734 115.555 115.989C115.534 116.051 115.51 116.112 115.486 116.174C115.475 116.202 115.449 116.25 115.443 116.282C115.445 116.265 115.54 116.062 115.473 116.213C115.406 116.36 115.337 116.506 115.262 116.651C115.106 116.949 114.934 117.238 114.746 117.516C114.651 117.658 114.55 117.797 114.448 117.935C114.347 118.075 114.56 117.797 114.407 117.989C114.34 118.071 114.273 118.155 114.204 118.237C113.719 118.813 113.173 119.32 112.595 119.801C112.487 119.889 112.724 119.704 112.612 119.788C112.582 119.81 112.551 119.833 112.521 119.855C112.441 119.915 112.359 119.974 112.277 120.032C112.113 120.146 111.945 120.258 111.772 120.362C111.44 120.565 111.097 120.748 110.743 120.908C110.709 120.923 110.674 120.938 110.64 120.953C110.834 120.867 110.707 120.925 110.663 120.942C110.571 120.977 110.478 121.013 110.383 121.048C110.195 121.115 110.005 121.173 109.813 121.225C109.645 121.27 109.477 121.309 109.306 121.341C109.289 121.346 109.013 121.387 109.013 121.391C109.013 121.387 109.203 121.369 109.086 121.38C109.023 121.385 108.963 121.393 108.9 121.4C108.51 121.432 108.115 121.428 107.724 121.387C107.692 121.382 107.526 121.367 107.662 121.382C107.789 121.395 107.662 121.382 107.638 121.378C107.537 121.361 107.435 121.346 107.334 121.324C107.131 121.285 106.928 121.236 106.73 121.18C106.555 121.13 106.38 121.074 106.207 121.013C106.108 120.979 106.011 120.942 105.914 120.903C105.864 120.884 105.817 120.865 105.767 120.845C105.89 120.897 105.834 120.873 105.746 120.832C105.372 120.664 105.01 120.472 104.658 120.258C104.317 120.051 103.994 119.822 103.672 119.587C103.851 119.719 103.592 119.523 103.558 119.495C103.486 119.436 103.415 119.378 103.346 119.318C103.187 119.182 103.031 119.044 102.88 118.899C102.556 118.593 102.248 118.269 101.959 117.928C101.894 117.853 101.831 117.777 101.769 117.699C101.739 117.661 101.708 117.622 101.678 117.585C101.754 117.68 101.743 117.669 101.676 117.579C101.555 117.417 101.441 117.253 101.331 117.085C101.124 116.77 100.934 116.442 100.772 116.101C100.75 116.055 100.636 115.788 100.692 115.932C100.75 116.077 100.645 115.809 100.63 115.769C100.571 115.607 100.519 115.443 100.476 115.277C100.349 114.785 99.7772 114.439 99.2809 114.599C98.7738 114.763 98.4652 115.266 98.6033 115.794L98.6141 115.79Z" fill="#1E1E1B"/>
<path d="M101.737 66.3095C101.564 67.1898 101.347 68.0636 101.083 68.9223C100.956 69.3387 100.818 69.7508 100.669 70.1607C100.593 70.3721 100.514 70.5814 100.432 70.7907C100.393 70.8899 100.354 70.987 100.315 71.0841C100.296 71.1338 100.276 71.1812 100.255 71.2308C100.244 71.2546 100.16 71.4595 100.212 71.3344C100.261 71.2179 100.194 71.3732 100.183 71.4013C100.162 71.4488 100.142 71.4984 100.121 71.5458C100.078 71.6429 100.037 71.74 99.9914 71.8349C99.8986 72.0399 99.8037 72.2427 99.7066 72.4455C99.5124 72.849 99.3074 73.2503 99.0938 73.6429C98.6644 74.4326 98.1983 75.2007 97.6955 75.945C97.4517 76.3053 97.1992 76.6613 96.9381 77.0108C96.8755 77.095 96.8108 77.1791 96.7482 77.2633C96.731 77.287 96.6274 77.4208 96.7029 77.3215C96.7784 77.2244 96.6749 77.356 96.6576 77.3798C96.5195 77.5567 96.3792 77.7315 96.2347 77.9041C95.6628 78.5966 95.0586 79.2633 94.4242 79.8998C93.7985 80.5255 93.1447 81.1231 92.4628 81.6884C92.301 81.8221 92.137 81.9559 91.9708 82.0875C91.9298 82.1199 91.8888 82.1522 91.8457 82.1846C91.8219 82.2019 91.6881 82.3054 91.7874 82.2299C91.9039 82.1414 91.6968 82.2989 91.6968 82.2989C91.645 82.3378 91.591 82.3788 91.5392 82.4176C91.1897 82.6787 90.8358 82.9289 90.4733 83.1727C89.6425 83.7337 88.7794 84.2472 87.8904 84.7111C87.4459 84.9419 86.9949 85.162 86.5374 85.3669C86.4295 85.4166 86.3195 85.464 86.2116 85.5115C86.1835 85.5244 86.0282 85.5913 86.1447 85.5395C86.2698 85.4856 86.0648 85.5719 86.0411 85.5827C85.7973 85.6841 85.5513 85.7812 85.3031 85.874C84.8306 86.053 84.453 86.5363 84.6256 87.0692C84.7745 87.5309 85.3118 87.9387 85.821 87.7467C89.3469 86.4133 92.5599 84.3723 95.2895 81.7725C97.9544 79.2331 100.155 76.1673 101.668 72.8123C102.533 70.8921 103.2 68.8921 103.606 66.823C103.703 66.3268 103.466 65.7507 102.928 65.6277C102.447 65.5177 101.839 65.7723 101.733 66.3052L101.737 66.3095Z" fill="#1E1E1B"/>
<path d="M113.972 70.1C113.957 70.305 113.938 70.5078 113.916 70.7106C113.905 70.799 113.895 70.8875 113.884 70.976C113.869 71.1205 113.91 70.8033 113.888 70.9457C113.879 71.0083 113.871 71.073 113.86 71.1356C113.8 71.5391 113.724 71.9404 113.636 72.3373C113.465 73.1076 113.243 73.8649 112.973 74.6071C112.904 74.7991 112.831 74.9889 112.755 75.1788C112.723 75.2608 112.688 75.3428 112.654 75.4269C112.6 75.5585 112.721 75.2759 112.662 75.4053C112.637 75.4636 112.613 75.5219 112.587 75.5801C112.423 75.9534 112.246 76.3201 112.058 76.6826C111.687 77.3967 111.273 78.0872 110.82 78.7495C110.712 78.907 110.602 79.0645 110.49 79.2198C110.429 79.3018 110.369 79.3838 110.308 79.4658C110.263 79.5262 110.101 79.7333 110.228 79.5737C109.974 79.8952 109.717 80.2102 109.445 80.5187C108.912 81.1228 108.345 81.6967 107.747 82.2339C107.443 82.5058 107.13 82.7711 106.81 83.0236C106.754 83.0689 106.582 83.2005 106.735 83.084C106.653 83.1465 106.573 83.207 106.491 83.2674C106.327 83.3882 106.161 83.509 105.995 83.6255C105.326 84.0915 104.627 84.5144 103.904 84.892C103.509 85.0991 103.108 85.2911 102.7 85.468C102.672 85.481 102.521 85.5457 102.639 85.4939C102.771 85.4378 102.547 85.5306 102.544 85.5328C102.45 85.5716 102.357 85.6083 102.262 85.645C102.048 85.7269 101.832 85.8068 101.617 85.8823C100.747 86.1822 99.858 86.413 98.9538 86.577C98.4532 86.6676 98.1252 87.3041 98.2763 87.7723C98.4511 88.3095 98.9344 88.5468 99.4717 88.4497C102.872 87.8392 106.031 86.2296 108.662 84.0096C111.292 81.7895 113.34 78.92 114.622 75.7311C115.345 73.9339 115.774 72.0331 115.921 70.1C115.96 69.593 115.446 69.1075 114.95 69.1291C114.391 69.155 114.02 69.5563 113.979 70.1H113.972Z" fill="#1E1E1B"/>
<path d="M123.386 79.099C123.293 79.5499 123.17 79.9922 123.017 80.4259C122.982 80.5208 122.948 80.6179 122.909 80.7129C122.89 80.7603 122.87 80.8078 122.853 80.8553C122.928 80.6611 122.879 80.7927 122.862 80.8337C122.769 81.043 122.672 81.2501 122.566 81.4529C122.354 81.8607 122.115 82.2533 121.854 82.6287C121.796 82.7129 121.735 82.7949 121.675 82.8769C121.645 82.9178 121.614 82.9588 121.582 82.9998C121.703 82.838 121.619 82.9502 121.593 82.9847C121.448 83.1638 121.301 83.3407 121.146 83.5112C120.838 83.8521 120.507 84.1757 120.16 84.4777C120.082 84.5446 120.005 84.6115 119.925 84.6762C119.877 84.7151 119.651 84.892 119.821 84.7625C119.638 84.9028 119.452 85.0365 119.26 85.166C118.878 85.4227 118.481 85.6557 118.071 85.8629C117.89 85.9556 117.704 86.0398 117.517 86.1239C117.353 86.1973 117.508 86.1282 117.538 86.1153C117.48 86.139 117.42 86.1628 117.361 86.1865C117.256 86.2275 117.148 86.2685 117.04 86.3073C116.559 86.4778 116.067 86.6115 115.566 86.7065C115.441 86.7302 115.316 86.7518 115.188 86.7712C115.141 86.7798 114.998 86.7949 115.219 86.769C115.143 86.7777 115.068 86.7884 114.99 86.7949C114.735 86.8208 114.481 86.8359 114.224 86.8424C113.717 86.8553 113.229 87.2804 113.253 87.8133C113.277 88.3268 113.68 88.7993 114.224 88.7842C118.261 88.6784 122.074 86.2685 124.059 82.7711C124.616 81.7916 125.032 80.7215 125.259 79.6168C125.36 79.1206 125.114 78.5445 124.581 78.4216C124.096 78.3115 123.496 78.5683 123.386 79.099Z" fill="#1E1E1B"/>
</g>
<defs>
<clipPath id="clip0_118_616">
<rect width="230" height="172" fill="white"/>
</clipPath>
</defs>
</svg>
