<svg width="79" height="79" viewBox="0 0 79 79" fill="none" xmlns="http://www.w3.org/2000/svg">
  <circle cx="39.3855" cy="39.3855" r="39.3855" fill="#1AE17A"/>
  <g clip-path="url(#clip_favicon)">
    <path d="M22.0318 58.5125C24.1295 60.5829 26.9147 61.7819 29.6714 62.7572C34.7536 64.4585 40.3283 64.9126 45.5701 63.6607C47.4166 63.0959 49.3033 62.6046 51.0254 61.7175C52.6188 61.1617 53.8787 60.032 55.3007 59.1765C56.1757 58.5952 56.8656 57.7957 57.6892 57.1524C58.5506 56.5297 59.1205 55.6262 59.8476 54.8723C60.9342 53.7152 62.0839 52.5368 62.6489 51.0313C62.9162 50.1643 63.9323 49.611 63.8456 48.6266C63.8011 48.1815 64.3338 48.0131 64.4675 47.6355C65.2583 45.7336 65.8029 43.7368 66.0844 41.7035C66.2298 40.5945 66.0399 39.4581 66.3047 38.363C66.4854 37.2078 66.1525 36.0714 66.0795 34.9252C65.8777 33.2373 65.4483 31.5798 64.8827 29.9777C63.5127 26.1228 60.6947 22.978 57.628 20.3106C56.2765 19.19 54.6788 18.4245 53.1467 17.5763C51.1944 16.5828 49.1276 15.7893 46.9779 15.326C42.9867 14.1634 38.7021 14.1634 34.6267 14.929C33.4442 15.2007 32.3223 15.692 31.1212 15.8836C27.0032 17.3337 23.1153 19.6138 20.2156 22.8692C17.1699 26.1593 15.1829 30.2331 13.6248 34.3689C13.0425 36.1954 12.3928 38.0462 12.4256 39.9877C12.3247 40.769 12.8594 41.4196 13.1298 42.1158C13.4138 41.6525 13.7139 41.2007 14.0332 40.7599C14.5332 39.7408 14.7485 38.616 15.1526 37.5623C15.5047 36.6654 15.8729 35.7753 16.1922 34.8669C16.1427 34.7933 16.0468 34.6431 15.9973 34.5695C16.0703 34.558 16.2157 34.5349 16.2881 34.5233C17.9025 30.6204 19.9087 26.7466 23.015 23.7679C25.0236 21.4878 27.9097 20.3234 30.5891 19.0046C32.3019 18.2689 34.1552 17.9533 35.9831 17.6164C40.0449 16.9245 44.2564 17.1622 48.2192 18.2713C53.2401 19.899 57.7127 23.1453 60.7207 27.4221C61.605 28.8838 62.4781 30.3845 63.0109 32.0103C63.3698 33.9651 63.6235 35.9412 63.8908 37.91C63.9749 38.5369 63.6773 39.1225 63.6352 39.7426C63.4545 41.9328 62.9546 44.0882 62.2368 46.1683C61.2324 48.688 59.7869 51.0259 58.0766 53.1424C54.3459 57.3664 49.0762 60.2412 43.4545 61.1173C43.0788 61.0298 42.8864 61.4773 43.1098 61.7308C43.6426 61.6038 44.1772 61.4815 44.7267 61.4335C43.4433 62.1023 41.9155 61.8001 40.5337 62.0719C40.712 61.8993 40.8858 61.7235 41.0548 61.5417C40.0177 61.5253 38.9806 61.5484 37.9459 61.6062C38.1291 61.7466 38.3141 61.8895 38.4973 62.0373C38.1477 61.8853 37.8265 61.6798 37.4552 61.5898C36.6811 61.3733 35.855 61.7071 35.097 61.4055C31.5327 60.6771 27.8701 59.7158 24.9209 57.5233C23.2248 56.1631 21.9105 54.4016 20.8028 52.5617C20.3103 51.8333 20.1952 50.934 19.6859 50.2147C19.5665 49.7052 19.4631 49.1908 19.2707 48.7044C19.1488 47.0652 19.0244 45.4119 19.1649 43.7708C19.2707 42.7725 19.2261 41.765 19.1086 40.7714C19.2002 40.9605 19.3808 41.3412 19.4724 41.5321C19.9204 39.3559 20.7626 37.2856 21.5491 35.2104C21.6475 34.9106 21.8802 34.5604 21.6357 34.2631C20.8752 34.1038 20.2936 34.7337 19.8573 35.2523C19.8691 35.1119 19.8969 34.8352 19.9087 34.6966L19.6296 34.7933C18.8648 35.6993 18.3555 36.7992 17.931 37.8942C17.5418 39.1413 16.9595 40.3337 16.7534 41.6312C16.2937 44.0335 16.1953 46.5398 16.7701 48.933C17.6451 52.4857 19.2973 55.9716 22.033 58.5125H22.0318ZM24.5892 19.9829C23.8058 20.4462 23.158 21.0919 22.3814 21.5619C23.3244 20.49 24.4178 19.4387 25.7767 18.9128C25.6338 19.4843 25.0069 19.646 24.5892 19.9823V19.9829ZM30.4127 16.8935C29.7067 17.2395 28.9462 17.4699 28.2544 17.8432C27.5174 18.2008 26.828 18.6896 25.997 18.8185C27.208 17.6541 28.9326 17.2091 30.4245 16.4806C30.422 16.5846 30.4152 16.792 30.4127 16.8935ZM34.1577 15.7662C33.1936 16.0568 32.2456 16.4691 31.2153 16.4393C31.8886 15.8793 32.7877 15.5978 33.6626 15.6093C34.4559 15.6416 35.2208 15.3716 36.0116 15.3327C35.4089 15.5449 34.7635 15.5722 34.1577 15.7662ZM45.6499 61.1526C47.872 60.6546 49.8571 59.5085 51.9524 58.6718C54.0544 57.2381 56.3118 55.9284 57.9306 53.9341C58.4751 53.3528 58.8736 52.645 59.4955 52.1355C59.303 52.6773 58.9256 53.1199 58.5314 53.5352C58.6818 53.7614 58.9398 53.7887 59.1904 53.7632C59.0475 53.9061 58.8668 54.0076 58.7492 54.1785C58.5265 54.1785 58.3575 53.987 58.1558 53.9225C56.9003 55.3058 55.4647 56.5188 54.0284 57.7172C52.2618 58.7709 50.5298 59.97 48.5286 60.5598C47.273 60.7142 46.14 61.3204 44.9198 61.6177C44.9476 61.2353 45.3727 61.2675 45.6493 61.152L45.6499 61.1526Z" fill="black"/>
    <path d="M42.0674 32.8499C42.7406 32.3355 43.149 31.5822 43.7214 30.9802C45.1174 29.7192 47.0623 29.3179 48.8927 29.1634C49.5517 29.085 50.1525 29.3847 50.7837 29.5094C50.819 29.1269 50.8611 28.7463 50.9081 28.3681C49.9248 27.8519 48.759 27.7479 47.9515 26.9435C45.2696 26.7708 42.5927 28.3547 41.4875 30.7638C41.9993 31.4253 41.0748 31.9306 41.1119 32.569C41.4238 32.6772 41.7406 32.7763 42.0667 32.8505L42.0674 32.8499Z" fill="black"/>
    <path d="M33.8532 32.5453C32.4194 32.3513 30.9225 32.7806 29.7821 33.647C28.3391 34.719 27.6683 36.4531 27.0718 38.0668C27.3886 38.5465 27.8298 38.8992 28.4399 38.8992C29.0779 37.947 29.3811 36.7553 30.3594 36.0493C31.1663 34.975 32.5623 34.5554 33.8699 34.5256C35.0196 34.4539 36.1223 34.86 37.2652 34.9081C37.1711 34.3985 37.1173 33.8337 36.7844 33.4141C35.8649 32.9715 34.8606 32.7131 33.8538 32.5447L33.8532 32.5453Z" fill="black"/>
    <path d="M32.4966 45.698C32.0931 46.1984 31.4923 46.4264 30.9316 46.7055C30.9737 46.8946 31.0393 47.0788 31.1241 47.2564C32.3561 48.3101 33.8833 49.0385 35.5237 49.2367C35.3381 49.0525 35.1531 48.8701 34.9674 48.6925C35.8777 48.8123 36.7978 48.8312 37.7124 48.8932C37.7545 48.9534 37.8417 49.0756 37.8838 49.1352C37.1097 49.2434 36.2694 48.8701 35.5466 49.1881C36.1592 49.5432 36.9166 49.4623 37.6023 49.5432C39.3999 49.7809 41.2791 49.6885 42.9845 49.0312C42.9777 48.9692 42.9635 48.8446 42.9561 48.7819C41.9703 48.678 40.9759 49.0057 39.9927 49.0975C41.5953 48.8002 43.0873 48.1338 44.6924 47.8297C44.1856 48.1113 43.6318 48.2955 43.1201 48.563C43.1813 48.667 43.3032 48.8768 43.3639 48.9826C45.2481 48.3557 46.982 47.35 48.4367 46.013C49.2319 46.6678 49.9454 47.4698 50.9262 47.8668C52.0784 48.3302 53.444 48.3995 54.5795 47.8553C56.0133 47.2053 56.8505 45.7643 57.3715 44.367C57.6791 43.6039 57.1859 42.8591 57.1203 42.1009C56.7026 41.2825 56.4068 40.3625 55.689 39.7375C55.0628 39.0851 54.225 38.716 53.4552 38.2667C53.4174 37.5771 53.4669 36.8554 53.1804 36.2079C53.0511 36.1343 52.7912 35.989 52.6619 35.9148C52.1829 36.265 51.5171 36.4772 51.3104 37.0816C50.6935 38.4144 50.3835 39.8779 49.6094 41.1414C49.3445 41.5701 48.868 41.7987 48.5327 42.1605C47.451 43.3109 46.4424 44.6552 44.9263 45.2754C43.3119 46.089 41.5594 46.7189 39.7247 46.7554C37.2749 46.928 34.7669 46.6514 32.496 45.6974L32.4966 45.698ZM50.3921 43.9852C51.3117 42.7588 52.0486 41.412 52.8865 40.1394C53.9446 40.6927 54.9137 41.4837 55.4768 42.5393C55.8332 44.1463 54.6111 45.4444 53.332 46.2258C53.8036 46.0853 54.2305 45.8433 54.6785 45.6518C54.6482 46.3364 53.8289 46.4082 53.2918 46.4933C51.8772 46.4635 50.4014 46.1729 49.2913 45.2553C49.5871 44.7738 49.9998 44.384 50.3915 43.9852H50.3921ZM48.2239 45.4609C47.912 46.2306 47.0346 46.607 46.3093 46.9341C46.9219 46.4155 47.5339 45.8828 48.2239 45.4609Z" fill="black"/>
    <path d="M42.6752 61.7885C42.6844 61.6547 42.708 61.3896 42.7197 61.2583C42.1424 61.3945 41.4716 61.2996 40.9673 61.6432C41.3262 62.146 42.1331 61.6894 42.6752 61.7885Z" fill="black"/>
  </g>
  <defs>
    <clipPath id="clip_favicon">
      <rect width="53.9441" height="49.9776" fill="white" transform="translate(12.4136 14.3967)"/>
    </clipPath>
  </defs>
</svg>
